<?xml version="1.0" standalone="no"?>
<!DOCTYPE svg PUBLIC "-//W3C//DTD SVG 1.1//EN" "http://www.w3.org/Graphics/SVG/1.1/DTD/svg11.dtd" >
<svg xmlns="http://www.w3.org/2000/svg">
<metadata>Generated by IcoMoon</metadata>
<defs>
<font id="icomoon" horiz-adv-x="1024">
<font-face units-per-em="1024" ascent="960" descent="-64" />
<missing-glyph horiz-adv-x="1024" />
<glyph unicode="&#x20;" horiz-adv-x="512" d="" />
<glyph unicode="&#xe900;" d="M1024 448c0-282.77-229.23-512-512-512s-512 229.23-512 512c0 282.77 229.23 512 512 512s512-229.23 512-512z" />
<glyph unicode="&#xe901;" d="M1002.667 448c0-270.988-219.679-490.667-490.667-490.667s-490.667 219.679-490.667 490.667c0 270.988 219.679 490.667 490.667 490.667s490.667-219.679 490.667-490.667z" />
<glyph unicode="&#xe902;" d="M725.333 448c0-117.821-95.513-213.333-213.333-213.333s-213.333 95.513-213.333 213.333c0 117.821 95.513 213.333 213.333 213.333s213.333-95.513 213.333-213.333z" />
<glyph unicode="&#xe903;" d="M512-51.2c-67.405 0-132.762 13.21-194.304 39.219-59.443 25.139-112.819 61.133-158.669 106.982s-81.843 99.226-106.982 158.669c-26.035 61.568-39.245 126.925-39.245 194.33s13.21 132.762 39.219 194.304c25.139 59.443 61.133 112.819 106.982 158.669s99.226 81.843 158.669 106.982c61.568 26.035 126.925 39.245 194.33 39.245s132.762-13.21 194.304-39.219c59.443-25.139 112.819-61.133 158.669-106.982s81.843-99.226 106.982-158.669c26.035-61.568 39.245-126.925 39.245-194.33s-13.21-132.762-39.219-194.304c-25.139-59.443-61.133-112.819-106.982-158.669s-99.226-81.843-158.669-106.982c-61.568-26.035-126.925-39.245-194.33-39.245z" />
<glyph unicode="&#xe904;" d="M512 934.4c-65.664 0-129.382-12.851-189.312-38.221-57.933-24.499-109.952-59.571-154.624-104.243s-79.744-96.691-104.243-154.624c-25.37-59.93-38.221-123.648-38.221-189.312s12.851-129.382 38.221-189.312c24.499-57.907 59.571-109.926 104.243-154.624 44.672-44.672 96.691-79.744 154.624-104.243 59.93-25.37 123.648-38.221 189.312-38.221s129.382 12.851 189.312 38.221c57.907 24.499 109.926 59.571 154.624 104.243 44.672 44.672 79.744 96.691 104.243 154.624 25.37 59.93 38.221 123.648 38.221 189.312s-12.851 129.382-38.221 189.312c-24.499 57.907-59.571 109.926-104.243 154.624-44.672 44.672-96.691 79.744-154.624 104.243-59.93 25.37-123.648 38.221-189.312 38.221zM512 960c282.778 0 512-229.222 512-512s-229.222-512-512-512-512 229.222-512 512 229.222 512 512 512z" />
<glyph unicode="&#xe905;" d="M665.293 238.49h-296.96c-26.522 0-51.84 11.136-69.76 30.72-12.314 13.389-17.51 31.846-14.029 49.715 3.84 18.995 16.333 35.098 33.766 43.52 14.822 7.168 24.32 22.118 24.55 38.579v156.314c2.816 70.451 52.070 130.458 120.627 146.97 11.29 26.726 42.112 39.245 68.838 27.93 11.648-4.915 21.12-13.875 26.701-25.242 73.523-13.005 128.256-75.11 131.891-149.683v-156.723c0.333-16.333 9.856-31.104 24.602-38.144 17.408-8.448 29.875-24.55 33.69-43.52 3.482-17.843-1.715-36.301-14.003-49.69-17.971-19.584-43.341-30.746-69.914-30.746z" />
<glyph unicode="&#xe906;" d="M518.374 152.448c-46.387 1.51-83.686 38.656-85.402 85.043l-1.126 12.646h173.133l-1.126-12.646c-2.918-45.875-39.603-82.355-85.478-85.043z" />
<glyph unicode="&#xe907;" d="M777.293 358.963c-6.298-0.026-11.418 5.094-11.443 11.392 0 0.026 0 0.026 0 0.051 0 16.486-19.533 18.995-20.48 19.123-6.246 0.717-10.752 6.349-10.035 12.595 0 0.077 0.026 0.128 0.026 0.205 0.87 6.246 6.528 10.675 12.8 10.010 22.221-1.51 39.731-19.558 40.55-41.83 0.077-6.298-4.992-11.469-11.29-11.546-0.051 0-0.102 0-0.128 0z" />
<glyph unicode="&#xe908;" d="M807.757 394.65c-6.298-0.026-11.418 5.094-11.443 11.392 0 0.026 0 0.026 0 0.051 0 16.486-19.584 19.021-20.48 19.123-6.246 0.973-10.496 6.835-9.523 13.082 0.922 5.939 6.298 10.138 12.262 9.626 22.221-1.562 39.706-19.584 40.576-41.83 0-6.298-5.094-11.418-11.392-11.443v0z" />
<glyph unicode="&#xe909;" d="M246.81 367.821c-6.298-0.026-11.418 5.094-11.443 11.392 0 0.026 0 0.026 0 0.051 0.819 22.272 18.355 40.32 40.602 41.805 6.298 0.538 11.827-4.147 12.365-10.445 0.512-5.99-3.686-11.341-9.626-12.262-2.202-0.282-20.48-3.2-20.48-19.098 0.026-6.298-5.094-11.418-11.392-11.443-0.026 0-0.026 0-0.026 0z" />
<glyph unicode="&#xe90a;" d="M216.294 403.558c-6.323 0-11.443 5.12-11.443 11.443 0.896 22.246 18.355 40.269 40.55 41.83 6.298 0.589 11.878-4.019 12.467-10.317 0.589-6.042-3.686-11.494-9.677-12.39-2.176-0.307-20.48-3.226-20.48-19.123 0.026-6.298-5.094-11.418-11.392-11.443-0.026 0-0.026 0-0.026 0z" />
<glyph unicode="&#xe90b;" d="M511.667 713.242c-13.158-0.128-24.653-8.934-28.16-21.632l-1.818-6.528-6.579-1.638c-60.979-12.006-105.958-63.949-109.107-126.029v-156.493c-0.256-25.293-14.822-48.23-37.581-59.238-10.906-5.197-18.714-15.206-21.12-27.034-2.099-10.675 1.024-21.709 8.371-29.722 13.517-14.771 32.614-23.194 52.634-23.219h296.96c20.045 0.026 39.142 8.448 52.659 23.245 7.347 8.013 10.445 19.021 8.346 29.696-2.381 11.827-10.189 21.837-21.069 27.034-22.707 10.88-37.299 33.69-37.658 58.88v156.902c-3.968 65.69-53.862 119.398-119.091 128.154l-6.707 1.254-2.304 6.502c-4.019 11.904-15.206 19.917-27.776 19.866z" />
<glyph unicode="&#xe90c;" d="M458.445 238.515c-1.075-33.638 25.318-61.773 58.931-62.848 0.333 0 0.666-0.026 1.024-0.026 33.51 1.664 59.853 29.312 59.853 62.874h-119.808z" />
<glyph unicode="&#xe90d;" glyph-name="supprimer" d="M336.435 851.251v0-57.702h351.078v57.702h-351.078zM160.819 736h-58.47v57.6h175.565v57.651c0.256 32 26.368 57.754 58.317 57.549h351.488c32 0.154 58.061-25.549 58.317-57.549v-57.651h175.565v-57.6h-58.47v-2.406l-28.006-662.323c-2.406-47.206-41.472-84.224-88.73-84.070h-468.48c-47.258-0.154-86.374 36.864-88.73 84.070l-28.006 662.323v2.406h-0.358zM219.392 736l28.006-662.374c0.973-16.026 14.182-28.621 30.259-28.826h468.378c16.077 0.205 29.286 12.8 30.259 28.826l28.006 662.374h-584.909zM599.962 620.8v-460.8h58.522v460.8h-58.522zM482.662 620.8v-460.8h58.573v460.8h-58.573zM365.414 620.339v-460.8h58.522v460.8h-58.522z" />
<glyph unicode="&#xe90e;" glyph-name="checkbox-off" d="M227.541 917.333c-101.931 0-184.875-82.944-184.875-184.875v-568.875c0-101.973 82.944-184.917 184.875-184.917h568.875c101.973 0 184.917 82.944 184.917 184.875v568.917c0 101.931-82.944 184.875-184.875 184.875h-568.917zM227.541 960h568.875c125.696 0 227.584-101.888 227.584-227.541v-568.875c0-125.696-101.888-227.584-227.541-227.584h-568.917c-125.653 0-227.541 101.888-227.541 227.541v568.917c0 125.653 101.888 227.541 227.541 227.541z" />
<glyph unicode="&#xe90f;" glyph-name="surface" d="M601.139 412.109c0 63.078-35.174 96.102-88.218 96.102-53.811 0-88.934-33.024-88.934-96.102v-219.443h-100.403v219.443c0 63.078-35.174 96.102-88.218 96.102-54.528 0-89.651-33.024-89.651-96.102v-219.443h-100.403v397.312h100.403v-48.026c25.088 33.024 67.379 53.811 116.89 53.811 61.696 0 112.589-26.573 139.827-75.981 25.805 45.158 78.182 75.981 136.243 75.981 95.386 0 162.816-60.262 162.816-169.933v-233.114h-100.403v219.392zM877.568 703.334c66.714 0 101.12-40.141 101.12-80.333 0-35.84-22.938-58.778-75.315-88.883l-49.51-28.006h123.341v-60.928h-205.824v57.344l81.766 55.245c27.955 19.354 44.442 37.99 44.442 60.262 0 17.92-10.752 28.723-25.805 28.723s-23.706-10.035-25.856-26.573h-77.414c2.918 48.691 41.626 83.149 109.056 83.149z" />
<glyph unicode="&#xe910;" glyph-name="dropdown" d="M480 255.334c-2.765 2.816-7.475 8.141-7.475 8.141l-305.869 309.965c-17.408 17.766-17.408 46.131 0 63.898 17.101 17.408 45.056 17.664 62.464 0.614 0.205-0.205 0.41-0.41 0.614-0.614l282.266-285.952 282.266 285.952c17.101 17.408 45.056 17.664 62.464 0.614 0.205-0.205 0.41-0.41 0.614-0.614 17.408-17.766 17.408-46.131 0-63.898l-305.971-309.965c0 0-4.198-4.864-6.963-7.68-8.243-9.267-19.968-14.643-32.358-14.797-12.237-0.051-23.91 5.171-32.051 14.336z" />
<glyph unicode="&#xe911;" glyph-name="euto" d="M330.957 582.554c12.083 65.741 46.643 125.235 97.792 168.243 53.146 39.475 118.221 59.494 184.32 56.73 25.498 0.41 50.995-1.946 75.981-7.014 21.453-4.762 42.598-11.11 63.13-18.944l-30.72-115.456c-15.821 5.376-31.898 9.83-48.23 13.414-20.224 4.045-40.806 5.888-61.44 5.53-32.768 1.997-65.229-7.168-92.16-25.958-23.706-19.866-40.448-46.746-47.821-76.8h218.88l-18.637-98.56h-212.787c-0.717-7.27-1.024-13.414-1.024-18.381v-29.44c0-3.942 0.307-9.626 1.024-16.896h201.267l-18.79-98.56h-169.626c6.656-32.666 24.422-62.054 50.278-83.098 24.832-16.384 54.118-24.576 83.814-23.501 22.17 0.051 44.339 2.099 66.15 6.144 22.989 4.147 45.466 10.752 67.021 19.814l28.621-114.483c-21.811-10.752-44.749-18.944-68.454-24.371-32.205-7.475-65.178-11.008-98.253-10.496-68.198-4.71-135.578 16.794-188.365 60.211-46.285 45.773-76.39 105.318-85.811 169.728h-71.117v98.816h62.259c-0.717 7.27-1.024 12.954-1.024 16.896v30.72c-0.051 5.632 0.307 11.315 1.024 16.896h-62.259v98.816h74.957z" />
<glyph unicode="&#xe912;" glyph-name="calendar" d="M914.688 936.96v23.040h-50.842v-23.040h-101.683v23.040h-50.842v-23.040h-101.683v23.040h-50.842v-23.040h-101.683v23.040h-50.893v-23.040h-96.051v23.040h-50.842v-23.040h-101.734v23.040h-50.842v-23.040h-106.752v-1000.96h1024v1000.96h-109.312zM968.090-12.8h-917.76v716.8h920.269v-716.8h-2.509zM50.33 755.2v128h50.842v-76.8h50.842v76.8h101.683v-76.8h50.842v76.8h96.102v-76.8h50.842v76.8h99.123v-76.8h50.842v76.8h99.123v-76.8h50.842v76.8h101.683v-76.8h50.842v76.8h53.914v-128h-907.52zM211.354 576.614c-26.675 0.256-48.538-21.248-48.794-48.128s21.094-48.845 47.77-49.152c26.675-0.256 48.538 21.248 48.794 48.128 0 0 0 0.051 0 0.051 0.051 0.307 0.051 0.666 0 0.973-0.205 26.47-21.453 47.872-47.77 48.128zM600.832 576.614c-26.522-2.816-45.773-26.778-42.957-53.504s26.573-46.080 53.094-43.264c26.522 2.816 45.773 26.778 42.957 53.504-2.406 22.835-20.275 40.858-42.957 43.264-3.379 0.358-6.758 0.358-10.138 0zM406.221 576.614c-26.624-0.051-48.23-21.862-48.128-48.691s21.709-48.538 48.333-48.486c26.624 0.051 48.128 21.811 48.128 48.589v0.461c-0.205 26.675-21.811 48.179-48.333 48.128zM259.635 345.702c0-26.863-21.616-48.64-48.282-48.64s-48.282 21.777-48.282 48.64c0 26.863 21.616 48.64 48.282 48.64s48.282-21.777 48.282-48.64zM649.114 345.702c0-26.863-21.616-48.64-48.282-48.64s-48.282 21.777-48.282 48.64c0 26.863 21.616 48.64 48.282 48.64s48.282-21.777 48.282-48.64zM454.4 345.702c0-26.863-21.616-48.64-48.282-48.64s-48.282 21.777-48.282 48.64c0 26.863 21.616 48.64 48.282 48.64s48.282-21.777 48.282-48.64zM211.354 211.558c-26.522 2.97-50.381-16.282-53.35-42.957s16.128-50.739 42.65-53.709c0.256-0.051 0.563-0.051 0.819-0.102 3.277-0.307 6.605-0.307 9.882 0 26.522 2.765 45.824 26.624 43.11 53.35-2.355 22.938-20.326 41.062-43.11 43.418zM600.832 211.558c-26.675 0-48.282-21.76-48.282-48.64s21.606-48.64 48.282-48.64c26.675 0 48.282 21.76 48.282 48.64s-21.606 48.64-48.282 48.64v0zM406.221 211.558c-26.675 0-48.282-21.76-48.282-48.64s21.606-48.64 48.282-48.64c26.675 0 48.282 21.76 48.282 48.64-1.229 26.317-22.118 47.36-48.282 48.64zM804.198 576.614c-26.522-2.816-45.773-26.778-42.957-53.504s26.573-46.080 53.094-43.264c26.522 2.816 45.773 26.778 42.957 53.504-2.406 22.835-20.275 40.858-42.957 43.264-3.328 0.358-6.758 0.358-10.138 0zM852.48 345.702c0-26.863-21.616-48.64-48.282-48.64s-48.282 21.777-48.282 48.64c0 26.863 21.616 48.64 48.282 48.64s48.282-21.777 48.282-48.64zM804.198 211.558c-26.675 0-48.282-21.76-48.282-48.64s21.606-48.64 48.282-48.64c26.675 0 48.282 21.76 48.282 48.64s-21.606 48.64-48.282 48.64v0z" />
<glyph unicode="&#xe913;" d="M1024 448c0-282.77-229.23-512-512-512s-512 229.23-512 512c0 282.77 229.23 512 512 512s512-229.23 512-512z" />
<glyph unicode="&#xe914;" d="M512-64c-282.325 0-512 229.675-512 512s229.675 512 512 512c282.325 0 512-229.675 512-512s-229.675-512-512-512zM512 917.333c-258.773 0-469.333-210.56-469.333-469.333s210.56-469.333 469.333-469.333 469.333 210.56 469.333 469.333-210.56 469.333-469.333 469.333z" />
<glyph unicode="&#xe915;" d="M796.459-42.667h-568.917c-113.707 0-206.208 92.501-206.208 206.208v568.917c0 113.707 92.501 206.208 206.208 206.208h568.875c113.707 0 206.208-92.501 206.208-206.208v-568.875c0.043-113.749-92.459-206.251-206.165-206.251z" />
<glyph unicode="&#xe916;" d="M227.541 917.333c-101.931 0-184.875-82.944-184.875-184.875v-568.875c0-101.973 82.944-184.917 184.875-184.917h568.875c101.973 0 184.917 82.944 184.917 184.875v568.917c0 101.931-82.944 184.875-184.875 184.875h-568.917zM227.541 960h568.875c125.696 0 227.584-101.888 227.584-227.541v-568.875c0-125.696-101.888-227.584-227.541-227.584h-568.917c-125.653 0-227.541 101.888-227.541 227.541v568.917c0 125.653 101.888 227.541 227.541 227.541z" />
<glyph unicode="&#xe917;" d="M417.835 190.037l-247.168 247.168 73.216 73.259 173.952-168.704 362.283 362.24 73.216-73.216-435.499-440.747z" />
<glyph unicode="&#xe918;" d="M1024 448c0-282.77-229.23-512-512-512s-512 229.23-512 512c0 282.77 229.23 512 512 512s512-229.23 512-512z" />
<glyph unicode="&#xe919;" d="M725.333 490.667h-170.667v170.667c0 23.552-19.115 42.667-42.667 42.667s-42.667-19.115-42.667-42.667v-170.667h-170.667c-23.552 0-42.667-19.115-42.667-42.667s19.115-42.667 42.667-42.667h170.667v-170.667c0-23.595 19.115-42.667 42.667-42.667s42.667 19.072 42.667 42.667v170.667h170.667c23.595 0 42.667 19.115 42.667 42.667s-19.072 42.667-42.667 42.667z" />
<glyph unicode="&#xe91a;" d="M1024 448c0-282.77-229.23-512-512-512s-512 229.23-512 512c0 282.77 229.23 512 512 512s512-229.23 512-512z" />
<glyph unicode="&#xe91b;" d="M712.422 553.498l-94.899 94.925c-2.816 2.79-6.63 4.378-10.598 4.378h-284.723c-8.269 0-14.976-6.707-15.002-14.976v-379.648c0.026-8.269 6.733-14.976 15.002-14.976h379.622c8.269 0 14.976 6.707 14.976 14.976v284.723c0 3.968-1.562 7.782-4.378 10.598zM432.102 622.822h159.821v-88.653h-159.821v88.653zM627.584 273.178h-231.142v126.182h231.142v-126.182zM686.848 273.178h-29.312v141.056c0 8.269-6.707 14.976-14.976 15.002h-261.12c-8.269-0.026-14.976-6.733-14.976-15.002v-141.056h-29.312v349.645h64.947v-103.629c-0.026-8.269 6.682-14.976 14.95-15.002 0 0 0.026 0 0.026 0h189.824c8.269 0 14.976 6.707 14.976 14.976 0 0 0 0.026 0 0.026v82.406l64.947-64.922 0.026-263.501z" />
<glyph unicode="&#xe91c;" d="M554.829 608.794c-8.294 0-15.002-6.707-15.002-15.002v-30.72c0-8.269 6.707-14.976 15.002-14.976s15.002 6.707 15.002 14.976v30.72c-0.026 8.269-6.707 14.976-15.002 15.002 0 0 0 0 0 0z" />
<glyph unicode="&#xe91d;" glyph-name="non_valide" d="M599.776 448l252.352 252.352c24.224 24.224 24.224 63.52 0 87.776-24.224 24.224-63.52 24.224-87.776 0l-252.352-252.384-252.352 252.384c-24.224 24.224-63.52 24.224-87.776 0-24.224-24.224-24.224-63.52 0-87.776l252.352-252.352-252.32-252.32c-24.224-24.224-24.224-63.52 0-87.776 24.224-24.224 63.52-24.224 87.776 0l252.32 252.32 252.32-252.32c24.224-24.224 63.52-24.224 87.776 0 24.224 24.224 24.224 63.52 0 87.776l-252.32 252.32z" />
<glyph unicode="&#xe91e;" glyph-name="valide" d="M295.488 89.28l-278.464 284c-22.72 23.168-22.72 60.288 0 83.456v0c23.36 23.808 61.728 23.808 85.088 0l235.968-240.64 583.904 590.72c23.456 23.712 61.792 23.584 85.056-0.288l0.032-0.032c22.656-23.264 22.528-60.384-0.288-83.456l-626.368-633.92c-23.392-23.648-61.632-23.584-84.928 0.16z" />
<glyph unicode="&#xe91f;" d="M287.718-64v1024h456.678l202.803-204.8v-819.174z" />
<glyph unicode="&#xe920;" d="M947.2 755.2l-202.803 204.8-3.686-208.486z" />
<glyph unicode="&#xe921;" d="M149.376 449.357h518.784c40.090 0 72.576-32.486 72.576-72.576v-154.675c0-40.090-32.486-72.576-72.576-72.576h-518.784c-40.090 0-72.576 32.486-72.576 72.576v154.675c0 40.090 32.486 72.576 72.576 72.576z" />
<glyph unicode="&#xe922;" d="M254.49 286.746h-26.982v-61.773h-32.256v160.87h59.238c38.707 0 58.086-21.888 58.086-49.792-0.026-24.422-16.614-49.306-58.086-49.306zM253.107 312.781c18.202 0 26.266 9.011 26.266 23.27 0 14.746-8.064 23.526-26.266 23.526h-25.6v-46.797z" />
<glyph unicode="&#xe923;" d="M476.365 305.178c0-48.614-33.434-80.205-84.813-80.205h-56.243v160.87h56.243c51.405 0 84.813-31.821 84.813-80.666zM390.4 252.39c33.869 0 52.992 19.354 52.992 52.787s-19.123 53.478-52.992 53.478h-22.835v-106.24h22.835z" />
<glyph unicode="&#xe924;" d="M500.531 385.843h99.354v-26.061h-67.098v-41.242h51.405v-25.574h-51.405v-67.994h-32.256z" />
<glyph unicode="&#xe925;" d="M152.702 960h718.596v-1024h-718.596v1024z" />
<glyph unicode="&#xe926;" d="M279.229 892.694h465.543v-251.742h-465.543v251.742z" />
<glyph unicode="&#xe927;" d="M405.288 482.448c0-34.9-28.292-63.192-63.192-63.192s-63.192 28.292-63.192 63.192c0 34.9 28.292 63.192 63.192 63.192s63.192-28.292 63.192-63.192z" />
<glyph unicode="&#xe928;" d="M745.095 482.448c0-34.9-28.292-63.192-63.192-63.192s-63.192 28.292-63.192 63.192c0 34.9 28.292 63.192 63.192 63.192s63.192-28.292 63.192-63.192z" />
<glyph unicode="&#xe929;" d="M575.192 482.448c0-34.9-28.292-63.192-63.192-63.192s-63.192 28.292-63.192 63.192c0 34.9 28.292 63.192 63.192 63.192s63.192-28.292 63.192-63.192z" />
<glyph unicode="&#xe92a;" d="M405.288 295.756c0-34.9-28.292-63.192-63.192-63.192s-63.192 28.292-63.192 63.192c0 34.9 28.292 63.192 63.192 63.192s63.192-28.292 63.192-63.192z" />
<glyph unicode="&#xe92b;" d="M745.095 295.756c0-34.9-28.292-63.192-63.192-63.192s-63.192 28.292-63.192 63.192c0 34.9 28.292 63.192 63.192 63.192s63.192-28.292 63.192-63.192z" />
<glyph unicode="&#xe92c;" d="M575.192 295.756c0-34.9-28.292-63.192-63.192-63.192s-63.192 28.292-63.192 63.192c0 34.9 28.292 63.192 63.192 63.192s63.192-28.292 63.192-63.192z" />
<glyph unicode="&#xe92d;" d="M405.288 139.551c0-34.9-28.292-63.192-63.192-63.192s-63.192 28.292-63.192 63.192c0 34.9 28.292 63.192 63.192 63.192s63.192-28.292 63.192-63.192z" />
<glyph unicode="&#xe92e;" d="M745.095 139.551c0-34.9-28.292-63.192-63.192-63.192s-63.192 28.292-63.192 63.192c0 34.9 28.292 63.192 63.192 63.192s63.192-28.292 63.192-63.192z" />
<glyph unicode="&#xe92f;" d="M575.192 139.551c0-34.9-28.292-63.192-63.192-63.192s-63.192 28.292-63.192 63.192c0 34.9 28.292 63.192 63.192 63.192s63.192-28.292 63.192-63.192z" />
<glyph unicode="&#xe930;" d="M153.663 960h358.337c197.937 0 358.4-160.463 358.4-358.4s-160.463-358.4-358.4-358.4-358.4 160.463-358.4 358.4l0.063 358.4z" />
<glyph unicode="&#xe931;" d="M0-64c0 282.768 229.232 512 512 512s512-229.232 512-512h-1024z" />
<glyph unicode="&#xe932;" d="M436.88 765.395c0-27.845-22.573-50.419-50.419-50.419s-50.419 22.573-50.419 50.419c0 27.845 22.573 50.419 50.419 50.419s50.419-22.573 50.419-50.419z" />
<glyph unicode="&#xe933;" d="M687.948 765.395c0-27.845-22.573-50.419-50.419-50.419s-50.419 22.573-50.419 50.419c0 27.845 22.573 50.419 50.419 50.419s50.419-22.573 50.419-50.419z" />
<glyph unicode="&#xe934;" d="M511.964 500.305c-21.19 0-42.361 4.249-62.482 12.737-38.759 16.366-69.138 46.718-85.522 85.468l57.91 24.486c9.971-23.588 28.456-42.065 52.062-52.026 49.691-20.992 107.188 2.389 128.171 52.089l57.928-24.459c-16.689-39.541-47.787-70.225-87.552-86.384-19.537-7.94-40.044-11.911-60.515-11.911z" />
<glyph unicode="&#xe935;" glyph-name="ico_retour" d="M917.333 494.805h-719.232l266.624 317.653c15.147 18.048 12.8 44.971-5.248 60.117s-44.971 12.8-60.117-5.248l-329.216-392.192c-9.984-11.904-9.515-25.088-3.328-37.12 1.152-3.2 5.931-11.904 7.125-13.355l329.216-392.192c8.448-10.069 20.523-15.232 32.725-15.232 9.685 0 19.413 3.285 27.435 9.984 18.048 15.104 20.395 42.027 5.248 60.075l-270.379 322.133h719.147c23.595 0 42.667 19.115 42.667 42.667s-19.072 42.709-42.667 42.709z" />
<glyph unicode="&#xe936;" d="M588.109 94.822c-1.459 66.304 51.098 121.216 117.402 122.675 0 0 0 0 0 0 2.355 0 4.685 0 7.014 0 69.478 3.149 128.358-50.611 131.507-120.090 0-0.026 0-0.077 0-0.102 0-0.819 0-1.664 0-2.56l-255.923 0.077z" />
<glyph unicode="&#xe937;" d="M774.477 141.414v68.608l69.632 158.976-95.744 227.584c-24.755-4.48-41.165-28.186-36.685-52.941 0 0 0-0.026 0-0.026 0.512-2.893 1.331-5.734 2.381-8.474l49.152-136.96-54.784-92.416v86.784c0 39.936-53.76 45.568-53.76 45.568v-296.704h119.808z" />
<glyph unicode="&#xe938;" d="M204.8 95.539c0 0.819 0 1.664 0 2.56 3.123 69.478 61.978 123.264 131.456 120.141 0 0 0.026 0 0.026 0 2.355 0 4.685 0 7.014 0 66.304-1.459 118.861-56.371 117.402-122.675 0 0 0 0 0 0l-255.898-0.026z" />
<glyph unicode="&#xe939;" d="M394.24 142.054v296.704c0 0-53.76-5.632-53.76-45.568v-86.784l-54.784 92.416 49.152 136.96c1.075 2.739 1.869 5.581 2.406 8.474 4.48 24.755-11.955 48.461-36.71 52.966l-95.744-227.584 69.632-158.976v-68.608h119.808z" />
<glyph unicode="&#xe93a;" d="M390.067 780.8h153.856v-285.44h-153.856v285.44z" />
<glyph unicode="&#xe93b;" d="M543.667 715.008h131.84v-219.648h-131.84v219.648z" />
<glyph unicode="&#xe93c;" d="M411.827 759.040h22.016v-44.032h-22.016v44.032z" />
<glyph unicode="&#xe93d;" d="M455.859 692.992h22.016v-44.032h-22.016v44.032z" />
<glyph unicode="&#xe93e;" d="M411.827 627.2h22.016v-44.032h-22.016v44.032z" />
<glyph unicode="&#xe93f;" d="M455.859 627.2h22.016v-44.032h-22.016v44.032z" />
<glyph unicode="&#xe940;" d="M543.667 692.992h22.016v-44.032h-22.016v44.032z" />
<glyph unicode="&#xe941;" d="M631.475 561.152h22.016v-44.032h-22.016v44.032z" />
<glyph unicode="&#xe942;" d="M411.827 561.152h22.016v-44.032h-22.016v44.032z" />
<glyph unicode="&#xe943;" d="M455.859 561.152h65.792v-65.792h-65.792v65.792z" />
<glyph unicode="&#xe944;" d="M455.859 759.040h22.016v-44.032h-22.016v44.032z" />
<glyph unicode="&#xe945;" d="M499.891 692.992h22.016v-44.032h-22.016v44.032z" />
<glyph unicode="&#xe946;" d="M499.891 627.2h22.016v-44.032h-22.016v44.032z" />
<glyph unicode="&#xe947;" d="M499.891 759.040h22.016v-44.032h-22.016v44.032z" />
<glyph unicode="&#xe948;" d="M411.827 692.992h22.016v-44.032h-22.016v44.032z" />
<glyph unicode="&#xe949;" d="M631.475 692.992h22.016v-44.032h-22.016v44.032z" />
<glyph unicode="&#xe94a;" d="M543.667 627.2h22.016v-44.032h-22.016v44.032z" />
<glyph unicode="&#xe94b;" d="M631.475 627.2h22.016v-44.032h-22.016v44.032z" />
<glyph unicode="&#xe94c;" d="M543.667 561.152h22.016v-44.032h-22.016v44.032z" />
<glyph unicode="&#xe94d;" d="M587.699 692.992h22.016v-44.032h-22.016v44.032z" />
<glyph unicode="&#xe94e;" d="M587.699 627.2h22.016v-44.032h-22.016v44.032z" />
<glyph unicode="&#xe94f;" d="M587.699 561.152h22.016v-44.032h-22.016v44.032z" />
<glyph unicode="&#xe950;" glyph-name="ico_action_supp_contour" d="M512-64c-282.317 0-512 229.683-512 512s229.683 512 512 512c282.317 0 512-229.683 512-512s-229.683-512-512-512zM512 934.4c-268.211 0-486.4-218.189-486.4-486.4s218.189-486.4 486.4-486.4 486.4 218.189 486.4 486.4-218.189 486.4-486.4 486.4zM332.8 499.2c28.288 0 51.2-22.912 51.2-51.2s-22.912-51.2-51.2-51.2-51.2 22.912-51.2 51.2c0 28.288 22.912 51.2 51.2 51.2zM563.2 448c0-28.277-22.923-51.2-51.2-51.2s-51.2 22.923-51.2 51.2c0 28.277 22.923 51.2 51.2 51.2s51.2-22.923 51.2-51.2zM742.4 448c0-28.277-22.923-51.2-51.2-51.2s-51.2 22.923-51.2 51.2c0 28.277 22.923 51.2 51.2 51.2s51.2-22.923 51.2-51.2z" />
<glyph unicode="&#xe951;" d="M1024 448c0-282.77-229.23-512-512-512s-512 229.23-512 512c0 282.77 229.23 512 512 512s512-229.23 512-512z" />
<glyph unicode="&#xe952;" d="M550.554 704c30.771 0.41 56.064-24.166 56.474-54.938s-24.166-56.064-54.938-56.474c-30.771-0.41-56.064 24.166-56.474 54.938 0 0.256 0 0.563 0 0.819-0.205 30.515 24.371 55.45 54.938 55.654 0 0 0 0 0 0z" />
<glyph unicode="&#xe953;" d="M599.757 211.405c-28.058-21.811-66.202-25.344-97.792-9.062-12.186 6.502-22.17 16.384-28.826 28.467-11.11 21.094-15.104 45.261-11.366 68.813l5.427 43.674 14.131 113.869-38.451-0.87c-18.074-0.307-32.973 14.131-33.28 32.256 0 0 0 0.051 0 0.051-0.358 13.722 7.782 26.214 20.48 31.437l98.56 39.373c23.296 9.216 49.715-2.202 58.931-25.498 0.102-0.205 0.154-0.41 0.256-0.614 3.43-8.653 4.147-18.176 2.048-27.238l-1.28-5.939-38.554-171.622-9.626-42.906c-0.922-3.738-1.587-7.526-2.048-11.315-1.024-19.302 26.061-4.813 26.061-4.813 16.077 8.96 36.352 3.226 45.363-12.851 0.102-0.205 0.205-0.358 0.307-0.563 8.346-15.36 3.891-34.509-10.342-44.646z" />
<glyph unicode="&#xe954;" d="M1024 448c0-282.77-229.23-512-512-512s-512 229.23-512 512c0 282.77 229.23 512 512 512s512-229.23 512-512z" />
<glyph unicode="&#xe955;" d="M550.554 704c30.771 0.41 56.064-24.166 56.474-54.938s-24.166-56.064-54.938-56.474c-30.771-0.41-56.064 24.166-56.474 54.938 0 0.256 0 0.563 0 0.819-0.205 30.515 24.371 55.45 54.938 55.654 0 0 0 0 0 0z" />
<glyph unicode="&#xe956;" d="M599.757 211.405c-28.058-21.811-66.202-25.344-97.792-9.062-12.186 6.502-22.17 16.384-28.826 28.467-11.11 21.094-15.104 45.261-11.366 68.813l5.427 43.674 14.131 113.869-38.451-0.87c-18.074-0.307-32.973 14.131-33.28 32.256 0 0 0 0.051 0 0.051-0.358 13.722 7.782 26.214 20.48 31.437l98.56 39.373c23.296 9.216 49.715-2.202 58.931-25.498 0.102-0.205 0.154-0.41 0.256-0.614 3.43-8.653 4.147-18.176 2.048-27.238l-1.28-5.939-38.554-171.622-9.626-42.906c-0.922-3.738-1.587-7.526-2.048-11.315-1.024-19.302 26.061-4.813 26.061-4.813 16.077 8.96 36.352 3.226 45.363-12.851 0.102-0.205 0.205-0.358 0.307-0.563 8.346-15.36 3.891-34.509-10.342-44.646z" />
<glyph unicode="&#xe957;" d="M1014.067 103.808l-438.118 761.933c-14.182 24.678-39.066 37.018-63.949 37.018s-49.766-12.339-63.949-36.992l-438.118-761.958c-28.288-49.178 7.219-110.566 63.949-110.566h876.211c56.755 0 92.262 61.389 63.974 110.566z" />
<glyph unicode="&#xe958;" d="M512.282 136.090c-36.019 0-60.211 24.218-60.211 54.323 0 31.258 24.192 55.475 60.211 55.475 35.43 0 59.622-24.218 59.622-55.475 0.026-30.131-24.192-54.323-59.622-54.323zM456.218 569.933h109.21l-11.802-282.752h-85.606l-11.802 282.752z" />
<glyph unicode="&#xe959;" glyph-name="ico_voir" d="M817.92 454.656c-52.301 121.933-173.286 200.013-305.946 197.453-132.659 2.56-253.645-75.52-305.946-197.453-1.664-4.25-1.664-8.934 0-13.184 52.275-121.984 173.261-200.115 305.946-197.581 132.659-2.56 253.645 75.52 305.946 197.453 1.715 4.275 1.715 9.037 0 13.312zM511.974 280.141c-115.2-2.406-220.928 63.462-269.594 167.91 48.64 104.448 154.394 170.317 269.594 167.91 115.2 2.406 220.928-63.462 269.568-167.91-48.666-104.422-154.394-170.291-269.568-167.91zM511.974 579.661c-72.704-0.026-131.635-59.008-131.61-131.712s59.008-131.635 131.712-131.61c72.704 0.026 131.61 58.957 131.61 131.661-0.051 72.73-58.982 131.661-131.712 131.712v-0.051zM511.974 352.486c-52.762 0-95.514 42.752-95.514 95.514s42.752 95.514 95.514 95.514 95.514-42.752 95.514-95.514c-0.102-52.685-42.829-95.386-95.514-95.462v-0.051zM511.974 497.050c-27.085 0-49.050-21.965-49.050-49.050s21.965-49.050 49.050-49.050 49.050 21.965 49.050 49.050c0 27.11-21.965 49.075-49.050 49.101v-0.051zM511.974 435.098c-7.066 0-12.8 5.734-12.8 12.8s5.734 12.8 12.8 12.8 12.8-5.734 12.8-12.8c-0.026-7.040-5.76-12.749-12.8-12.749v-0.051z" />
<glyph unicode="&#xe95a;" d="M1024 448c0-282.77-229.23-512-512-512s-512 229.23-512 512c0 282.77 229.23 512 512 512s512-229.23 512-512z" />
<glyph unicode="&#xe95b;" d="M817.92 454.656c-52.301 121.933-173.286 200.013-305.946 197.453-132.659 2.56-253.645-75.52-305.946-197.453-1.664-4.25-1.664-8.934 0-13.184 52.275-121.984 173.261-200.115 305.946-197.581 132.659-2.56 253.645 75.52 305.946 197.453 1.715 4.275 1.715 9.037 0 13.312zM511.974 280.141c-115.2-2.406-220.928 63.462-269.594 167.91 48.64 104.448 154.394 170.317 269.594 167.91 115.2 2.406 220.928-63.462 269.568-167.91-48.666-104.422-154.394-170.291-269.568-167.91zM511.974 579.661c-72.704-0.026-131.635-59.008-131.61-131.712s59.008-131.635 131.712-131.61c72.704 0.026 131.61 58.957 131.61 131.661-0.051 72.73-58.982 131.661-131.712 131.712v-0.051zM511.974 352.486c-52.762 0-95.514 42.752-95.514 95.514s42.752 95.514 95.514 95.514 95.514-42.752 95.514-95.514c-0.102-52.685-42.829-95.386-95.514-95.462v-0.051zM511.974 497.050c-27.085 0-49.050-21.965-49.050-49.050s21.965-49.050 49.050-49.050 49.050 21.965 49.050 49.050c0 27.11-21.965 49.075-49.050 49.101v-0.051zM511.974 435.098c-7.066 0-12.8 5.734-12.8 12.8s5.734 12.8 12.8 12.8 12.8-5.734 12.8-12.8c-0.026-7.040-5.76-12.749-12.8-12.749v-0.051z" />
<glyph unicode="&#xe95c;" d="M1024 448c0-282.77-229.23-512-512-512s-512 229.23-512 512c0 282.77 229.23 512 512 512s512-229.23 512-512z" />
<glyph unicode="&#xe95d;" d="M273.178 640.026h267.494v-29.44h-267.494v29.44z" />
<glyph unicode="&#xe95e;" d="M273.178 286.643h267.494v-29.44h-267.494v29.44z" />
<glyph unicode="&#xe95f;" d="M661.248 615.808c-16.077-0.128-32.026-2.816-47.232-7.987v146.944h-409.242v-613.53h409.242v158.72h47.232c87.245 0 158.003 70.733 158.003 158.003s-70.733 158.003-158.003 158.003v-0.154zM584.858 171.904h-349.363v552.141h350.95v-128.845c-29.542-16.538-52.992-42.138-66.867-73.011h-245.478v-30.72h234.982c-2.816-11.443-4.275-23.194-4.301-34.97v-53.376h-231.603v-29.133h230.682v-75.469h80.998v-126.618zM661.248 330.189h-128.23v128.845c0.333 70.81 58.035 127.949 128.845 127.616s127.949-58.035 127.616-128.845c-0.358-70.579-57.651-127.616-128.23-127.616z" />
<glyph unicode="&#xe960;" d="M740.608 442.931l-21.683 21.683-50.483-50.483v147.021h-30.72v-147.072l-50.714 50.56-21.709-21.709 87.552-87.526 87.757 87.526z" />
<glyph unicode="&#xe961;" glyph-name="ico_telecharger" d="M273.178 640.026h267.494v-29.44h-267.494v29.44zM273.178 286.643h267.494v-29.44h-267.494v29.44zM661.248 615.808c-16.077-0.128-32.026-2.816-47.232-7.987v146.944h-409.242v-613.53h409.242v158.72h47.232c87.245 0 158.003 70.733 158.003 158.003s-70.733 158.003-158.003 158.003v-0.154zM584.858 171.904h-349.363v552.141h350.95v-128.845c-29.542-16.538-52.992-42.138-66.867-73.011h-245.478v-30.72h234.982c-2.816-11.443-4.275-23.194-4.301-34.97v-53.376h-231.603v-29.133h230.682v-75.469h80.998v-126.618zM661.248 330.189h-128.23v128.845c0.333 70.81 58.035 127.949 128.845 127.616s127.949-58.035 127.616-128.845c-0.358-70.579-57.651-127.616-128.23-127.616zM740.608 442.931l-21.683 21.683-50.483-50.483v147.021h-30.72v-147.072l-50.714 50.56-21.709-21.709 87.552-87.526 87.757 87.526z" />
<glyph unicode="&#xe962;" d="M1024 448c0-282.77-229.23-512-512-512s-512 229.23-512 512c0 282.77 229.23 512 512 512s512-229.23 512-512z" />
<glyph unicode="&#xe963;" d="M661.248 615.808c-16.077-0.128-32.026-2.816-47.232-7.987v146.944h-409.242v-613.53h409.242v158.72h47.232c87.245 0 158.003 70.733 158.003 158.003s-70.733 158.003-158.003 158.003v-0.154zM503.885 374.067v-75.469h80.998v-126.694h-349.389v552.141h350.95v-128.845c-29.542-16.538-52.992-42.138-66.867-73.011-9.37-20.634-14.387-42.982-14.72-65.638v-53.376l-0.973-29.107zM661.248 330.189h-128.23v128.845c0.333 70.81 58.035 127.949 128.845 127.616s127.949-58.035 127.616-128.845c-0.358-70.579-57.651-127.616-128.23-127.616z" />
<glyph unicode="&#xe964;" d="M676.582 384.922v147.046h-30.72v-147.072l30.72 0.026z" />
<glyph unicode="&#xe965;" d="M587.75 443.11h147.046v30.72h-147.072c0-15.565 0.026-30.72 0.026-30.72z" />
<glyph unicode="&#xe966;" glyph-name="ico_brochure" d="M268.083 697.677h460.211v27.008h-460.211v-27.008zM197.709 719.309c0.896 3.251 1.843 6.502 2.688 9.754 8.141 29.901 35.123 50.79 66.125 51.2 158.054 0 316.109 0 474.163 0 7.68 0.947 14.669-4.531 15.59-12.211 0.947-7.68-4.531-14.669-12.211-15.59-0.947-0.128-1.92-0.128-2.893-0.051-2.406 0-4.787 0-7.194 0-153.677 0-307.379 0-461.082 0-13.67 1.126-27.085-4.147-36.301-14.285-14.976-17.178-13.21-43.264 3.994-58.266 7.552-6.579 17.229-10.189 27.238-10.163 88.96-0.128 177.894-0.128 266.829 0h221.389c0.128-2.253 0.333-3.917 0.333-5.581 0-62.387 0-124.774 0-187.162 0.998-7.501-4.301-14.413-11.802-15.411-1.28-0.179-2.586-0.154-3.866 0.051-5.862 0.384-10.701 4.685-11.776 10.445-0.538 2.97-0.768 6.016-0.666 9.037 0 50.688 0 101.376 0 152.064v8.422h-9.114c-144.538 0-289.075 0-433.638 0-20.557-2.176-41.267 2.637-58.726 13.696-0.154-3.379-0.333-5.632-0.333-7.885 0-153.37 0.23-306.739-0.282-460.134-0.512-24.038 18.56-43.93 42.598-44.416 0.691-0.026 1.408 0 2.099 0 70.195 0.486 140.39 0.154 210.586 0.154h5.12c10.445 0 15.744-2.893 17.92-9.677s-0.179-12.109-8.602-18.278h-239.386c-1.101 0.538-2.253 0.973-3.43 1.357-24.678 5.197-44.595 23.398-52.019 47.514-1.357 3.994-2.304 8.141-3.43 12.237l0.077 543.181zM628.147 114.79c-12.979 2.33-25.805 5.453-38.4 9.37-59.725 19.2-102.861 71.347-110.49 133.632-13.005 87.526 45.158 169.805 132.019 186.701 90.189 18.432 178.253-39.757 196.659-129.971 18.432-90.189-39.757-178.253-129.946-196.659v0c-5.12-1.101-10.496-2.048-15.77-3.072h-34.074zM644.813 419.61c-76.442-0.41-138.061-62.669-137.677-139.11s62.669-138.061 139.11-137.677c75.904 0.41 137.344 61.875 137.677 137.779-0.179 76.749-62.387 138.88-139.11 139.008v0zM268.083 697.677v27.008h460.211v-26.931l-460.211-0.077zM730.573 278.63c-22.195-22.451-43.75-44.493-65.587-66.227-4.941-5.222-13.158-5.453-18.381-0.512-0.282 0.282-0.563 0.563-0.845 0.87-5.504 5.35-5.606 14.157-0.23 19.661 0.077 0.077 0.154 0.154 0.23 0.23 4.89 5.12 10.035 10.24 15.13 15.36 5.478 5.069 10.522 10.65 15.027 16.614h-6.528c-31.616 0-63.232 0-94.848 0-10.035 0-15.974 5.12-16.026 13.798s5.734 14.182 15.77 14.234c31.411 0 62.797 0 94.208 0h8.704c-10.803 10.829-20.48 20.198-29.619 29.875-2.586 2.56-4.506 5.76-5.555 9.242-1.485 5.709 1.126 11.725 6.323 14.515 4.89 3.2 11.29 2.842 15.795-0.87 1.203-0.947 2.33-1.971 3.354-3.072l59.264-59.648c1.254-1.229 2.381-2.509 3.814-4.070z" />
<glyph unicode="&#xe967;" glyph-name="ico_action_supp" d="M332.8 499.2c28.288 0 51.2-22.912 51.2-51.2s-22.912-51.2-51.2-51.2-51.2 22.912-51.2 51.2 22.912 51.2 51.2 51.2zM563.2 448c0-28.277-22.923-51.2-51.2-51.2s-51.2 22.923-51.2 51.2c0 28.277 22.923 51.2 51.2 51.2s51.2-22.923 51.2-51.2zM742.4 448c0-28.277-22.923-51.2-51.2-51.2s-51.2 22.923-51.2 51.2c0 28.277 22.923 51.2 51.2 51.2s51.2-22.923 51.2-51.2z" />
<glyph unicode="&#xe968;" glyph-name="ico_contacter" d="M828.928 616.96h-508.928v-337.92h512v337.92h-3.072zM768.256 592.64l-192.256-185.6-190.464 185.088 382.72 0.512zM807.68 303.36h-462.080v289.28h5.632l225.28-218.88 228.352 218.88h4.096l-1.28-289.28zM198.144 500.198h179.2v-24.064h-179.2v24.064zM198.144 370.381h179.2v-24.064h-179.2v24.064zM140.8 437.837h236.544v-24.064h-236.544v24.064z" />
<glyph unicode="&#xe969;" d="M1024 448c0-282.77-229.23-512-512-512s-512 229.23-512 512c0 282.77 229.23 512 512 512s512-229.23 512-512z" />
<glyph unicode="&#xe96a;" d="M828.928 616.96h-508.928v-337.92h512v337.92h-3.072zM768.256 592.64l-192.256-185.6-190.464 185.088 382.72 0.512zM807.68 303.36h-462.080v289.28h5.632l225.28-218.88 228.352 218.88h4.096l-1.28-289.28z" />
<glyph unicode="&#xe96b;" d="M198.144 500.198h179.2v-24.064h-179.2v24.064z" />
<glyph unicode="&#xe96c;" d="M198.144 370.381h179.2v-24.064h-179.2v24.064z" />
<glyph unicode="&#xe96d;" d="M140.8 437.837h236.544v-24.064h-236.544v24.064z" />
<glyph unicode="&#xe96e;" d="M1024 448c0-282.77-229.23-512-512-512s-512 229.23-512 512c0 282.77 229.23 512 512 512s512-229.23 512-512z" />
<glyph unicode="&#xe96f;" d="M665.242 231.654h-297.088c-26.522 0-51.814 11.162-69.734 30.72-12.314 13.389-17.536 31.846-14.029 49.715 3.84 18.995 16.333 35.072 33.766 43.52 14.822 7.194 24.294 22.093 24.525 38.554v156.314c0.179 33.357 12.058 65.587 33.562 91.085 22.605 27.085 52.992 46.566 87.040 55.834 8.192 19.43 27.213 32.077 48.307 32.077 20.096 0.128 38.477-11.264 47.258-29.338 36.531-7.936 69.658-27.11 94.72-54.861 23.475-26.010 36.685-59.674 37.094-94.72v-156.723c0.282-16.358 9.805-31.155 24.602-38.144 17.382-8.474 29.85-24.55 33.664-43.52 3.482-17.843-1.69-36.275-13.978-49.664-17.869-19.584-43.162-30.797-69.709-30.848zM511.642 706.381c-13.184-0.077-24.704-8.934-28.16-21.658l-1.818-6.528-6.605-1.638c-60.979-11.955-106.010-63.923-109.107-126.003v-156.493c-0.256-25.267-14.797-48.23-37.555-59.238-10.906-5.171-18.739-15.206-21.146-27.034-2.099-10.675 1.024-21.709 8.397-29.722 13.491-14.797 32.563-23.219 52.582-23.245h297.114c20.045 0 39.142 8.448 52.634 23.245 7.373 8.013 10.47 19.046 8.397 29.722-2.406 11.802-10.214 21.811-21.069 27.034-22.707 10.88-37.299 33.69-37.632 58.88v156.902c-3.968 65.715-53.888 119.424-119.142 128.154l-6.707 1.229-2.278 6.528c-4.019 11.981-15.309 19.994-27.955 19.866h0.051z" />
<glyph unicode="&#xe970;" d="M518.374 145.613c-46.387 1.51-83.686 38.656-85.402 85.043l-1.126 12.621h173.133l-1.126-12.621c-2.918-45.875-39.578-82.355-85.478-85.043zM458.419 231.706v0c-0.896-33.843 25.805-62.003 59.648-62.899 0.102 0 0.23 0 0.333 0 33.536 1.664 59.827 29.338 59.827 62.899h-119.808z" />
<glyph unicode="&#xe971;" d="M777.242 352.128c-6.298-0.026-11.418 5.094-11.443 11.392 0 0.026 0 0.026 0 0.051 0 16.486-19.533 18.995-20.48 19.123-6.246 0.717-10.752 6.349-10.035 12.595 0 0.077 0.026 0.128 0.026 0.205 0.87 6.246 6.528 10.675 12.8 10.010 22.221-1.51 39.731-19.558 40.55-41.83 0.077-6.298-4.992-11.469-11.29-11.546-0.051 0-0.077 0-0.128 0z" />
<glyph unicode="&#xe972;" d="M807.706 387.814c-6.298-0.026-11.418 5.094-11.443 11.392 0 0.026 0 0.026 0 0.051 0 16.486-19.584 19.021-20.48 19.123-6.246 0.973-10.496 6.835-9.523 13.082 0.922 5.939 6.298 10.138 12.262 9.626 22.221-1.562 39.706-19.584 40.576-41.83 0.026-6.298-5.094-11.418-11.392-11.443v0z" />
<glyph unicode="&#xe973;" d="M246.758 360.986c-6.298-0.026-11.418 5.094-11.443 11.392 0 0.026 0 0.026 0 0.051 0.819 22.272 18.355 40.32 40.602 41.805 6.298 0.538 11.827-4.147 12.365-10.445 0.512-5.99-3.686-11.341-9.626-12.262-2.202-0.282-20.48-3.2-20.48-19.098 0.026-6.298-5.094-11.418-11.392-11.443 0 0-0.026 0-0.026 0z" />
<glyph unicode="&#xe974;" d="M216.243 396.723c-6.323 0-11.443 5.12-11.443 11.443 0.896 22.246 18.355 40.269 40.55 41.83 6.298 0.589 11.878-4.019 12.467-10.317 0.589-6.042-3.686-11.494-9.677-12.39-2.176-0.307-20.48-3.226-20.48-19.123 0.026-6.298-5.094-11.418-11.392-11.443 0 0-0.026 0-0.026 0z" />
<glyph unicode="&#xe975;" glyph-name="ico_creer_notification" d="M665.242 231.654h-297.088c-26.522 0-51.814 11.162-69.734 30.72-12.314 13.389-17.536 31.846-14.029 49.715 3.84 18.995 16.333 35.072 33.766 43.52 14.822 7.194 24.294 22.093 24.525 38.554v156.314c0.179 33.357 12.058 65.587 33.562 91.085 22.605 27.085 52.992 46.566 87.040 55.834 8.192 19.43 27.213 32.077 48.307 32.077 20.096 0.128 38.477-11.264 47.258-29.338 36.531-7.936 69.658-27.11 94.72-54.861 23.475-26.010 36.685-59.674 37.094-94.72v-156.723c0.282-16.358 9.805-31.155 24.602-38.144 17.382-8.474 29.85-24.55 33.664-43.52 3.482-17.843-1.69-36.275-13.978-49.664-17.869-19.584-43.162-30.797-69.709-30.848zM511.642 706.381c-13.184-0.077-24.704-8.934-28.16-21.658l-1.818-6.528-6.605-1.638c-60.979-11.955-106.010-63.923-109.107-126.003v-156.493c-0.256-25.267-14.797-48.23-37.555-59.238-10.906-5.171-18.739-15.206-21.146-27.034-2.099-10.675 1.024-21.709 8.397-29.722 13.491-14.797 32.563-23.219 52.582-23.245h297.114c20.045 0 39.142 8.448 52.634 23.245 7.373 8.013 10.47 19.046 8.397 29.722-2.406 11.802-10.214 21.811-21.069 27.034-22.707 10.88-37.299 33.69-37.632 58.88v156.902c-3.968 65.715-53.888 119.424-119.142 128.154l-6.707 1.229-2.278 6.528c-4.019 11.981-15.309 19.994-27.955 19.866h0.051zM518.374 145.613c-46.387 1.51-83.686 38.656-85.402 85.043l-1.126 12.621h173.133l-1.126-12.621c-2.918-45.875-39.578-82.355-85.478-85.043zM458.419 231.706v0c-0.896-33.843 25.805-62.003 59.648-62.899 0.102 0 0.23 0 0.333 0 33.536 1.664 59.827 29.338 59.827 62.899h-119.808zM777.242 352.128c-6.298-0.026-11.418 5.094-11.443 11.392 0 0.026 0 0.026 0 0.051 0 16.486-19.533 18.995-20.48 19.123-6.246 0.717-10.752 6.349-10.035 12.595 0 0.077 0.026 0.128 0.026 0.205 0.87 6.246 6.528 10.675 12.8 10.010 22.221-1.51 39.731-19.558 40.55-41.83 0.077-6.298-4.992-11.469-11.29-11.546-0.051 0-0.077 0-0.128 0zM807.706 387.814c-6.298-0.026-11.418 5.094-11.443 11.392 0 0.026 0 0.026 0 0.051 0 16.486-19.584 19.021-20.48 19.123-6.246 0.973-10.496 6.835-9.523 13.082 0.922 5.939 6.298 10.138 12.262 9.626 22.221-1.562 39.706-19.584 40.576-41.83 0.026-6.298-5.094-11.418-11.392-11.443v0zM246.758 360.986c-6.298-0.026-11.418 5.094-11.443 11.392 0 0.026 0 0.026 0 0.051 0.819 22.272 18.355 40.32 40.602 41.805 6.298 0.538 11.827-4.147 12.365-10.445 0.512-5.99-3.686-11.341-9.626-12.262-2.202-0.282-20.48-3.2-20.48-19.098 0.026-6.298-5.094-11.418-11.392-11.443 0 0-0.026 0-0.026 0zM216.243 396.723c-6.323 0-11.443 5.12-11.443 11.443 0.896 22.246 18.355 40.269 40.55 41.83 6.298 0.589 11.878-4.019 12.467-10.317 0.589-6.042-3.686-11.494-9.677-12.39-2.176-0.307-20.48-3.226-20.48-19.123 0.026-6.298-5.094-11.418-11.392-11.443 0 0-0.026 0-0.026 0z" />
<glyph unicode="&#xe976;" d="M1024 448c0-282.77-229.23-512-512-512s-512 229.23-512 512c0 282.77 229.23 512 512 512s512-229.23 512-512z" />
<glyph unicode="&#xe977;" d="M362.208 466.56c1.76 1.728 5.088 4.672 5.088 4.672l193.728 191.232c11.040 10.88 28.896 10.88 39.936 0s11.040-28.544 0-39.424l-178.72-176.416 178.72-176.416c11.040-10.88 11.040-28.544 0-39.424-5.504-5.44-12.736-8.16-19.968-8.16s-14.464 2.72-19.968 8.16l-193.728 191.232c0 0-3.040 2.624-4.8 4.352-5.792 5.696-9.504 12.768-9.248 20.224-0.256 7.52 3.168 14.272 8.96 19.968z" />
<glyph unicode="&#xe978;" d="M1024 448c0-282.77-229.23-512-512-512s-512 229.23-512 512c0 282.77 229.23 512 512 512s512-229.23 512-512z" />
<glyph unicode="&#xe979;" d="M632.288 466.56c-1.76 1.728-5.088 4.672-5.088 4.672l-193.728 191.232c-11.040 10.88-28.896 10.88-39.936 0s-11.040-28.544 0-39.424l178.72-176.416-178.72-176.416c-11.040-10.88-11.040-28.544 0-39.424 5.504-5.44 12.736-8.16 19.968-8.16s14.464 2.72 19.968 8.16l193.728 191.232c0 0 3.040 2.624 4.8 4.352 5.792 5.696 9.504 12.768 9.248 20.224 0.256 7.52-3.168 14.272-8.96 19.968z" />
<glyph unicode="&#xe97a;" glyph-name="efface_saisie" d="M584.42 448l424.619 424.619c20.025 20.025 20.025 52.395 0 72.42s-52.395 20.025-72.42 0l-424.619-424.619-424.619 424.562c-20.025 20.025-52.395 20.025-72.42 0s-20.025-52.395 0-72.42l424.619-424.562-424.619-424.619c-20.025-20.025-20.025-52.395 0-72.42 10.012-9.956 23.154-14.962 36.238-14.962s26.226 5.006 36.181 15.019l424.619 424.562 424.619-424.619c9.956-9.956 23.097-14.962 36.181-14.962s26.226 5.006 36.181 15.019c20.025 20.025 20.025 52.395 0 72.42l-424.562 424.562z" />
<glyph unicode="&#xe97b;" d="M805.015 235.535c161.807 163.177 161.807 426.285 0 589.463-160.437 161.837-421.707 162.936-583.529 2.485-0.828-0.828-1.656-1.656-2.485-2.485-161.822-163.177-161.822-426.3 0-589.463l293-294.746 293.015 294.746z" />
<glyph unicode="&#xe97c;" d="M512-64l-298.511 300.017c-164.171 165.406-164.171 434.507 0 599.898l2.485 2.485c164.623 163.102 431.36 161.988 594.583-2.485 164.126-165.391 164.126-434.492 0-599.898h-0.015l-298.541-300.017zM512 945.212c-103.304 0-206.592-39.048-285.56-117.278l-2.44-2.44c-158.464-159.654-158.464-419.403 0-579.042l288-289.476 288.030 289.461c158.434 159.639 158.434 419.388-0.015 579.042-79.149 79.782-183.597 119.733-288.015 119.733z" />
<glyph unicode="&#xe97d;" d="M431.706 605.455h157.335v-17.348h-157.335v17.348z" />
<glyph unicode="&#xe97e;" d="M431.706 397.282h157.335v-17.348h-157.335v17.348z" />
<glyph unicode="&#xe97f;" d="M659.953 591.179c-9.457-0.075-18.839-1.656-27.784-4.698v86.558h-240.7v-361.412h240.7v93.365h27.784c51.396 0 93.064 41.668 93.064 93.064s-41.668 93.048-93.064 93.064v0.060zM615.032 329.698h-205.493v325.271h205.493v-75.896c-17.393-9.758-31.187-24.862-39.334-43.068h-144.354v-18.071h138.541c-1.656-6.746-2.515-13.658-2.53-20.6v-31.443h-135.65v-17.167h135.68v-44.454h47.631l0.015-74.571zM659.968 422.942h-75.43v75.174c0.256 41.653 34.244 75.219 75.896 74.963s75.219-34.244 74.963-75.896c-0.256-41.487-33.958-74.963-75.445-74.963l0.015 0.723z" />
<glyph unicode="&#xe980;" d="M631.040 508.868c1.521 8.162 5.828 15.541 12.213 20.856 6.656 4.894 14.773 7.379 23.025 7.032 3.177 0.045 6.37-0.241 9.487-0.873 2.68-0.587 5.316-1.37 7.891-2.349l-3.825-14.306c-1.973 0.663-3.991 1.22-6.024 1.656-2.515 0.497-5.090 0.738-7.65 0.693-4.081 0.241-8.132-0.888-11.505-3.223-2.967-2.44-5.075-5.768-6.024-9.487h27.332l-2.334-12.213h-26.564c-0.090-0.904-0.12-1.656-0.12-2.274v-3.674c0-0.482 0-1.19 0.12-2.093h25.133l-2.349-12.213h-21.173c1.235-8.132 8.553-13.899 16.745-13.207 2.771 0 5.542 0.256 8.267 0.753 2.876 0.512 5.677 1.34 8.373 2.455l3.569-14.185c-2.726-1.325-5.602-2.334-8.553-3.012-4.021-0.919-8.147-1.355-12.273-1.295-8.508-0.572-16.926 2.123-23.522 7.529-5.783 5.662-9.547 13.071-10.722 21.082h-8.885v12.213h7.77c-0.090 0.904-0.12 1.611-0.12 2.093v3.825c0 0.693 0.030 1.4 0.12 2.093h-7.77v12.122h9.367z" />
<glyph unicode="&#xe981;" d="M805.015 235.535c161.807 163.177 161.807 426.285 0 589.463-160.437 161.837-421.707 162.936-583.529 2.485-0.828-0.828-1.656-1.656-2.485-2.485-161.822-163.177-161.822-426.3 0-589.463l293-294.746 293.015 294.746z" />
<glyph unicode="&#xe982;" d="M512-64l-298.511 300.017c-164.171 165.406-164.171 434.507 0 599.898l2.485 2.485c164.623 163.102 431.36 161.988 594.583-2.485 164.126-165.391 164.126-434.492 0-599.898h-0.015l-298.541-300.017zM512 945.212c-103.304 0-206.592-39.048-285.56-117.278l-2.44-2.44c-158.464-159.654-158.464-419.403 0-579.042l288-289.476 288.030 289.461c158.434 159.639 158.434 419.388-0.015 579.042-79.149 79.782-183.597 119.733-288.015 119.733z" />
<glyph unicode="&#xe983;" d="M431.827 605.907h157.576v-17.167h-157.576v17.167z" />
<glyph unicode="&#xe984;" d="M431.827 536.516h157.576v-17.167h-157.576v17.167z" />
<glyph unicode="&#xe985;" d="M431.827 467.125h157.576v-17.167h-157.576v17.167z" />
<glyph unicode="&#xe986;" d="M431.827 397.734h157.576v-17.167h-157.576v17.167z" />
<glyph unicode="&#xe987;" d="M752.941 581.15l-42.285 30.72-78.065-108.424v170.044h-241.062v-361.412h241.062v111.676l11.927 5.783 108.424 151.612zM714.451 587.836l14.637-10.662-96.858-134.024-18.071-9.397 3.253 19.637 97.039 134.445zM615.424 329.246h-205.824v326.174h205.824v-176.369l-14.095-19.697-9.397-56.922 23.492 12.469v-85.655z" />
<glyph unicode="&#xe988;" d="M1024 448c0-282.77-229.23-512-512-512s-512 229.23-512 512c0 282.77 229.23 512 512 512s512-229.23 512-512z" />
<glyph unicode="&#xe989;" d="M691.2 422.4h-358.4c-14.131 0-25.6 11.469-25.6 25.6v0c0 14.131 11.469 25.6 25.6 25.6h358.4c14.131 0 25.6-11.469 25.6-25.6v0c0-14.131-11.469-25.6-25.6-25.6z" />
<glyph unicode="&#xe98a;" d="M691.2 576h-358.4c-14.131 0-25.6 11.469-25.6 25.6v0c0 14.131 11.469 25.6 25.6 25.6h358.4c14.131 0 25.6-11.469 25.6-25.6v0c0-14.131-11.469-25.6-25.6-25.6z" />
<glyph unicode="&#xe98b;" d="M691.2 268.8h-358.4c-14.131 0-25.6 11.469-25.6 25.6v0c0 14.131 11.469 25.6 25.6 25.6h358.4c14.131 0 25.6-11.469 25.6-25.6v0c0-14.131-11.469-25.6-25.6-25.6z" />
<glyph unicode="&#xe98c;" d="M1024 448c0-282.77-229.23-512-512-512s-512 229.23-512 512c0 282.77 229.23 512 512 512s512-229.23 512-512z" />
<glyph unicode="&#xe98d;" d="M548.198 446.746l108.621 108.621c10.010 10.010 10.010 26.189 0 36.198s-26.189 10.010-36.198 0l-108.621-108.621-108.621 108.621c-10.010 10.010-26.189 10.010-36.198 0s-10.010-26.189 0-36.198l108.621-108.621-108.621-108.621c-10.010-10.010-10.010-26.189 0-36.198 4.992-4.992 11.546-7.501 18.099-7.501s13.107 2.509 18.099 7.501l108.621 108.621 108.621-108.621c4.992-4.992 11.546-7.501 18.099-7.501s13.107 2.509 18.099 7.501c10.010 10.010 10.010 26.189 0 36.198l-108.621 108.621z" />
<glyph unicode="&#xe98e;" d="M10.453 949.547h501.547c276.992 0 501.547-224.555 501.547-501.547v0c0-276.992-224.555-501.547-501.547-501.547v0c-276.992 0-501.547 224.555-501.547 501.547v501.547z" />
<glyph unicode="&#xe98f;" d="M512-64c-282.325 0-512 229.675-512 512v512h512c282.325 0 512-229.675 512-512s-229.675-512-512-512zM20.907 939.093v-491.093c0-270.805 220.309-491.093 491.093-491.093s491.093 220.288 491.093 491.093-220.288 491.093-491.093 491.093h-491.093z" />
<glyph unicode="&#xe990;" d="M438.379 462.869l18.773-7.893c4.48 10.773 16.853 15.893 27.648 11.392 5.163-2.155 9.259-6.251 11.392-11.392v0c9.109-21.099 33.6-30.805 54.699-21.675 9.728 4.203 17.472 11.968 21.675 21.675l-19.413 8.32c-4.48-10.773-16.853-15.893-27.648-11.392-5.163 2.155-9.259 6.251-11.392 11.392v0c-6.741 14.784-21.291 24.469-37.547 24.96-16.704 0.064-31.787-9.963-38.187-25.387z" />
<glyph unicode="&#xe991;" d="M659.157 413.163c59.797 81.152 42.496 195.413-38.656 255.232-31.445 23.168-69.483 35.648-108.544 35.584h-182.528v-182.784c0.021-38.891 12.501-76.736 35.584-108.032-68.416-47.531-109.163-125.589-109.056-208.896v-12.288h512v12.288c0.192 83.264-40.469 161.301-108.8 208.896zM353.749 678.379h158.208c87.509 0.149 158.571-70.699 158.72-158.208s-70.699-158.571-158.208-158.72c-87.509-0.149-158.571 70.699-158.72 158.208v158.72zM281.557 216.299c3.392 72.064 40.341 138.389 99.84 179.2 69.248-72.661 184.299-75.435 256.981-6.187 0 0 0 0 0 0 2.133 2.027 4.267 4.075 6.187 6.187 59.499-40.811 96.448-107.136 99.84-179.2h-462.848z" />
<glyph unicode="&#xe992;" d="M433.344 537.963l12.587 12.373 12.16-12.587 14.507 14.293-12.373 12.587 12.587 12.16-14.293 14.507-12.373-12.373-12.373 12.587-14.507-14.293 12.373-12.587-12.373-12.16 14.080-14.507z" />
<glyph unicode="&#xe993;" d="M553.109 537.963l12.587 12.373 12.16-12.587 14.507 14.293-12.373 12.587 12.587 12.16-14.293 14.507-12.587-12.373-12.16 12.587-14.507-14.293 12.373-12.587-12.587-12.16 14.293-14.507z" />
<glyph unicode="&#xe994;" d="M10.453 949.547h501.547c276.992 0 501.547-224.555 501.547-501.547v0c0-276.992-224.555-501.547-501.547-501.547v0c-276.992 0-501.547 224.555-501.547 501.547v501.547z" />
<glyph unicode="&#xe995;" d="M512-64c-282.325 0-512 229.675-512 512v512h512c282.325 0 512-229.675 512-512s-229.675-512-512-512zM20.907 939.093v-491.093c0-270.805 220.309-491.093 491.093-491.093s491.093 220.288 491.093 491.093-220.288 491.093-491.093 491.093h-491.093z" />
<glyph unicode="&#xe996;" d="M715.371 692.48v11.52h-25.408v-11.52h-50.859v11.52h-25.344v-11.52h-50.923v11.52h-25.408v-11.52h-50.859v11.52h-25.408v-11.52h-49.579v11.52h-26.688v-11.52h-50.859v11.52h-25.344v-11.52h-52.693v-500.48h512v500.48h-52.629zM742.080 217.6h-458.88v358.4h460.139v-358.4h-1.259zM283.2 601.6v64.768h25.493v-39.168h25.344v39.168h50.859v-39.168h25.408v39.168h49.323v-39.168h26.944v39.168h49.579v-39.168h25.429v39.168h50.837v-39.168h25.429v39.168h50.837v-39.168h25.344v39.168h26.944v-64.768h-457.771z" />
<glyph unicode="&#xe997;" d="M586.496 532.736c-38.4 0-49.067-30.464-49.067-70.144s10.667-70.912 49.067-70.912c38.4 0 49.323 30.72 49.323 70.912s-10.688 70.144-49.323 70.144zM586.496 411.648c-25.429 0-27.968 23.467-27.968 51.2s2.795 51.2 27.968 51.2 27.968-25.6 27.968-51.2c0-25.6-2.795-51.2-27.968-51.2z" />
<glyph unicode="&#xe998;" d="M655.893 510.464h17.536v-119.040h21.717v138.752h-39.253v-19.712z" />
<glyph unicode="&#xe999;" d="M10.453 949.547h501.547c276.992 0 501.547-224.555 501.547-501.547v0c0-276.992-224.555-501.547-501.547-501.547v0c-276.992 0-501.547 224.555-501.547 501.547v501.547z" />
<glyph unicode="&#xe99a;" d="M512-64c-282.325 0-512 229.675-512 512v512h512c282.325 0 512-229.675 512-512s-229.675-512-512-512zM20.907 939.093v-491.093c0-270.805 220.309-491.093 491.093-491.093s491.093 220.288 491.093 491.093-220.288 491.093-491.093 491.093h-491.093z" />
<glyph unicode="&#xe99b;" d="M768 479.488l-256 204.8-256-204.8h88.832v-267.776h334.336v267.776h88.832zM512 655.872l192.256-153.6h-384l191.744 153.6zM656.64 233.984h-289.536v245.504h289.536v-245.504z" />
<glyph unicode="&#xe99c;" d="M477.995 386.517c2.283 12.245 8.768 23.317 18.347 31.296 9.984 7.36 22.165 11.072 34.56 10.56 4.779 0.064 9.557-0.363 14.251-1.301 4.032-0.875 7.979-2.069 11.84-3.52l-5.76-21.568c-2.965 1.003-5.995 1.835-9.045 2.496-3.776 0.747-7.616 1.088-11.477 1.024-6.144 0.363-12.224-1.323-17.28-4.821-4.437-3.669-7.573-8.661-8.96-14.251h41.045l-3.499-18.347h-39.979c-0.128-1.365-0.192-2.496-0.192-3.413v-5.483c0-0.725 0-1.792 0.192-3.157h37.739l-3.52-18.347h-31.808c1.856-12.181 12.843-20.864 25.131-19.84 4.16 0 8.32 0.384 12.416 1.131 4.309 0.768 8.533 2.005 12.565 3.691l5.355-21.333c-4.075-1.984-8.384-3.52-12.8-4.523-6.037-1.387-12.224-2.048-18.411-1.963-12.779-0.896-25.408 3.115-35.328 11.2-8.661 8.491-14.315 19.563-16.085 31.573h-13.333v18.347h11.669c-0.128 1.365-0.192 2.411-0.192 3.157v5.76c0 1.045 0.064 2.112 0.192 3.157h-11.669v18.475h14.037z" />
<glyph unicode="&#xe99d;" d="M10.453 949.547h501.547c276.992 0 501.547-224.555 501.547-501.547v0c0-276.992-224.555-501.547-501.547-501.547v0c-276.992 0-501.547 224.555-501.547 501.547v501.547z" />
<glyph unicode="&#xe99e;" d="M512-64c-282.325 0-512 229.675-512 512v512h512c282.325 0 512-229.675 512-512s-229.675-512-512-512zM20.907 939.093v-491.093c0-270.805 220.309-491.093 491.093-491.093s491.093 220.288 491.093 491.093-220.288 491.093-491.093 491.093h-491.093z" />
<glyph unicode="&#xe99f;" d="M334.251 608.256h222.891v-24.576h-222.891v24.576z" />
<glyph unicode="&#xe9a0;" d="M334.251 313.344h222.891v-24.576h-222.891v24.576z" />
<glyph unicode="&#xe9a1;" d="M657.6 588.032c-13.397-0.107-26.688-2.347-39.36-6.656v122.624h-340.992v-512h340.992v132.267h39.36c72.811 0 131.84 59.029 131.84 131.84s-59.029 131.819-131.84 131.84c0 0 0 0.085 0 0.085zM593.963 217.6h-291.115v460.8h291.115v-107.52c-24.64-13.824-44.181-35.221-55.723-61.013h-204.501v-25.6h196.267c-2.347-9.557-3.563-19.349-3.584-29.184v-44.544h-192.171v-24.32h192.213v-62.976h67.477l0.021-105.643zM657.621 349.696h-106.859v106.496c0.363 59.008 48.512 106.56 107.52 106.197s106.56-48.512 106.197-107.52c-0.363-58.773-48.107-106.197-106.88-106.197l0.021 1.024z" />
<glyph unicode="&#xe9a2;" d="M616.64 471.424c2.155 11.563 8.256 22.016 17.301 29.547 9.429 6.933 20.928 10.453 32.619 9.963 4.501 0.064 9.024-0.341 13.44-1.237 3.797-0.832 7.531-1.941 11.179-3.328l-5.419-20.267c-2.795 0.939-5.653 1.728-8.533 2.347-3.563 0.704-7.211 1.045-10.837 0.981-5.781 0.341-11.52-1.259-16.299-4.565-4.203-3.456-7.189-8.171-8.533-13.44h38.72l-3.307-17.301h-37.632c-0.128-1.28-0.171-2.347-0.171-3.221v-5.205c0-0.683 0-1.685 0.171-2.965h35.605l-3.328-17.301h-29.995c1.749-11.52 12.117-19.691 23.723-18.709 3.925 0 7.851 0.363 11.712 1.067 4.075 0.725 8.043 1.899 11.861 3.477l5.056-20.096c-3.861-1.877-7.936-3.307-12.117-4.267-5.696-1.301-11.541-1.92-17.387-1.835-12.053-0.811-23.979 3.008-33.323 10.667-8.192 8.021-13.525 18.517-15.189 29.867h-12.587v17.301h11.008c-0.128 1.28-0.171 2.283-0.171 2.965v5.419c0 0.981 0.043 1.984 0.171 2.965h-11.008v17.173c0 0 13.269 0 13.269 0z" />
<glyph unicode="&#xe9a3;" d="M10.453 949.547h501.547c276.992 0 501.547-224.555 501.547-501.547v0c0-276.992-224.555-501.547-501.547-501.547v0c-276.992 0-501.547 224.555-501.547 501.547v501.547z" />
<glyph unicode="&#xe9a4;" d="M512-64c-282.325 0-512 229.675-512 512v512h512c282.325 0 512-229.675 512-512s-229.675-512-512-512zM20.907 939.093v-491.093c0-270.805 220.309-491.093 491.093-491.093s491.093 220.288 491.093 491.093-220.288 491.093-491.093 491.093h-491.093z" />
<glyph unicode="&#xe9a5;" d="M334.421 608.256h223.232v-24.32h-223.232v24.32z" />
<glyph unicode="&#xe9a6;" d="M334.421 509.952h223.232v-24.32h-223.232v24.32z" />
<glyph unicode="&#xe9a7;" d="M334.421 411.648h223.232v-24.32h-223.232v24.32z" />
<glyph unicode="&#xe9a8;" d="M334.421 313.344h223.232v-24.32h-223.232v24.32z" />
<glyph unicode="&#xe9a9;" d="M789.333 573.184l-59.904 43.52-110.592-153.6v240.896h-341.504v-512h341.504v158.208l16.896 8.192 153.6 214.784zM734.805 582.656l20.736-15.104-137.216-189.867-25.6-13.312 4.608 27.819 137.472 190.464zM594.517 216.32h-291.584v462.080h291.584v-249.856l-19.968-27.904-13.312-80.64 33.28 17.664v-121.344z" />
<glyph unicode="&#xe9aa;" d="M512-51.2c-67.405 0-132.762 13.21-194.304 39.219-59.443 25.139-112.819 61.133-158.669 106.982s-81.843 99.226-106.982 158.669c-26.035 61.568-39.245 126.925-39.245 194.33s13.21 132.762 39.219 194.304c25.139 59.443 61.133 112.819 106.982 158.669s99.226 81.843 158.669 106.982c61.568 26.035 126.925 39.245 194.33 39.245s132.762-13.21 194.304-39.219c59.443-25.139 112.819-61.133 158.669-106.982s81.843-99.226 106.982-158.669c26.035-61.568 39.245-126.925 39.245-194.33s-13.21-132.762-39.219-194.304c-25.139-59.443-61.133-112.819-106.982-158.669s-99.226-81.843-158.669-106.982c-61.568-26.035-126.925-39.245-194.33-39.245z" />
<glyph unicode="&#xe9ab;" d="M512 934.4c-65.664 0-129.382-12.851-189.312-38.221-57.933-24.499-109.952-59.571-154.624-104.243s-79.744-96.691-104.243-154.624c-25.37-59.93-38.221-123.648-38.221-189.312s12.851-129.382 38.221-189.312c24.499-57.907 59.571-109.926 104.243-154.624 44.672-44.672 96.691-79.744 154.624-104.243 59.93-25.37 123.648-38.221 189.312-38.221s129.382 12.851 189.312 38.221c57.907 24.499 109.926 59.571 154.624 104.243 44.672 44.672 79.744 96.691 104.243 154.624 25.37 59.93 38.221 123.648 38.221 189.312s-12.851 129.382-38.221 189.312c-24.499 57.907-59.571 109.926-104.243 154.624-44.672 44.672-96.691 79.744-154.624 104.243-59.93 25.37-123.648 38.221-189.312 38.221zM512 960c282.778 0 512-229.222 512-512s-229.222-512-512-512-512 229.222-512 512 229.222 512 512 512z" />
<glyph unicode="&#xe9ac;" d="M650.778 687.642l-128.282-128-144.026 144.358-122.47-122.752 144.614-143.77-88.038-88.243-40.243-141.466 141.133 40.32 88.064 88.243 144-144.333 122.47 122.752-144.614 143.77 127.718 128.589-100.326 100.531zM718.413 587.11l-41.395-41.498-68.224 67.789 41.446 41.498 68.173-67.789zM339.379 342.784l253.082 254.259 68.224-68.378-253.645-253.67-67.661 67.789zM289.28 581.837l89.216 89.421 29.747-29.798-42.624-42.675 16.333-16.358 42.573 42.675 53.76-53.76-26.342-26.317 16.333-16.358 26.24 26.291 11.674-11.699-89.216-89.421-127.693 128zM328.32 320.589l56.576-56.704-78.72-22.221 22.144 78.925zM618.726 431.053l-42.573-43.238 16.333-16.358 42.573 42.675 53.76-53.76-26.24-26.291 16.333-16.358 26.24 26.291 29.568-29.85-89.216-89.421-127.718 128 89.216 89.421 11.725-11.11z" />
<glyph unicode="&#xe9ad;" d="M328.32 320.589l56.576-56.704-78.72-22.221z" />
<glyph unicode="&#xe9ae;" d="M339.379 342.784l253.082 254.259 68.224-68.378-253.645-253.67z" />
<glyph unicode="&#xe9af;" d="M718.413 587.11l-41.395-41.498-68.224 67.789 41.446 41.498z" />
<glyph unicode="&#xe9b0;" d="M289.28 581.837l89.216 89.421 29.747-29.798-42.624-42.675 16.333-16.358 42.573 42.675 53.76-53.76-26.342-26.317 16.333-16.358 26.24 26.291 11.674-11.699-89.216-89.421z" />
<glyph unicode="&#xe9b1;" d="M618.726 431.053l-42.573-43.238 16.333-16.358 42.573 42.675 53.76-53.76-26.24-26.291 16.333-16.358 26.24 26.291 29.568-29.85-89.216-89.421-127.718 128 89.216 89.421z" />
<glyph unicode="&#xe9b2;" d="M512-51.2c-67.405 0-132.762 13.21-194.304 39.219-59.443 25.139-112.819 61.133-158.669 106.982s-81.843 99.226-106.982 158.669c-26.035 61.568-39.245 126.925-39.245 194.33s13.21 132.762 39.219 194.304c25.139 59.443 61.133 112.819 106.982 158.669s99.226 81.843 158.669 106.982c61.568 26.035 126.925 39.245 194.33 39.245s132.762-13.21 194.304-39.219c59.443-25.139 112.819-61.133 158.669-106.982s81.843-99.226 106.982-158.669c26.035-61.568 39.245-126.925 39.245-194.33s-13.21-132.762-39.219-194.304c-25.139-59.443-61.133-112.819-106.982-158.669s-99.226-81.843-158.669-106.982c-61.568-26.035-126.925-39.245-194.33-39.245z" />
<glyph unicode="&#xe9b3;" d="M512 934.4c-65.664 0-129.382-12.851-189.312-38.221-57.933-24.499-109.952-59.571-154.624-104.243s-79.744-96.691-104.243-154.624c-25.37-59.93-38.221-123.648-38.221-189.312s12.851-129.382 38.221-189.312c24.499-57.907 59.571-109.926 104.243-154.624 44.672-44.672 96.691-79.744 154.624-104.243 59.93-25.37 123.648-38.221 189.312-38.221s129.382 12.851 189.312 38.221c57.907 24.499 109.926 59.571 154.624 104.243 44.672 44.672 79.744 96.691 104.243 154.624 25.37 59.93 38.221 123.648 38.221 189.312s-12.851 129.382-38.221 189.312c-24.499 57.907-59.571 109.926-104.243 154.624-44.672 44.672-96.691 79.744-154.624 104.243-59.93 25.37-123.648 38.221-189.312 38.221zM512 960c282.778 0 512-229.222 512-512s-229.222-512-512-512-512 229.222-512 512 229.222 512 512 512z" />
<glyph unicode="&#xe9b4;" d="M509.21 112.691v0l-185.062 185.062c-49.203 48.973-76.749 115.61-76.518 185.037-0.23 69.427 27.315 136.064 76.518 185.062 48.998 49.229 115.635 76.774 185.088 76.544 69.427 0.23 136.064-27.341 185.062-76.544 49.203-48.998 76.749-115.635 76.518-185.062 0.23-69.427-27.315-136.064-76.518-185.037l-185.088-185.062zM508.134 561.613c-45.901-0.64-82.816-37.965-82.944-83.866 0.051-46.285 37.555-83.789 83.84-83.84 46.285 0.102 83.763 37.658 83.789 83.942 0 22.323-8.96 43.699-24.858 59.341-15.642 15.59-36.813 24.371-58.88 24.448l-0.947-0.026z" />
<glyph unicode="&#xe9b5;" d="M509.235 150.451v0l-166.963 166.912c-44.416 44.186-69.299 104.32-69.12 166.963-0.179 62.643 24.704 122.778 69.12 166.963 44.186 44.416 104.32 69.299 166.963 69.12 62.643 0.179 122.726-24.704 166.886-69.12 92.032-92.262 92.032-241.638 0-333.901l-166.886-166.938zM508.134 561.587c-45.901-0.614-82.842-37.939-82.97-83.84 0.051-46.285 37.555-83.789 83.84-83.84 46.31 0.077 83.814 37.606 83.84 83.917-0.026 22.298-8.986 43.648-24.883 59.29-15.642 15.59-36.813 24.371-58.88 24.448l-0.947 0.026z" />
<glyph unicode="&#xe9b6;" d="M509.030 368.179c-60.416 0.077-109.363 49.024-109.44 109.44 0.205 59.955 48.461 108.698 108.416 109.466h1.178c28.8-0.102 56.397-11.571 76.8-31.872 20.736-20.454 32.384-48.358 32.384-77.466-0.026-60.39-48.947-109.389-109.338-109.568zM508.134 561.485c-45.901-0.64-82.816-37.965-82.944-83.866 0.051-46.285 37.555-83.789 83.84-83.84 46.31 0.102 83.789 37.658 83.814 83.968 0 22.298-8.96 43.674-24.858 59.315-15.642 15.59-36.813 24.371-58.88 24.448l-0.973-0.026z" />
<glyph unicode="&#xe9b7;" d="M549.615 843.435c-137.421 120.661-346.624 107.042-467.251-30.379s-107.042-346.624 30.379-467.251c118.682-104.209 294.434-110.046 419.806-13.995l410.726-361.54 80.657 91.819-409.805 360.892c83.012 137.318 55.842 314.368-64.512 420.454z" />
<glyph unicode="&#xe9b8;" d="M593.374 597.709c0-148.134-119.949-268.22-267.913-268.22s-267.913 120.086-267.913 268.22c0 148.134 119.949 268.22 267.913 268.22s267.913-120.086 267.913-268.22z" />
<glyph unicode="&#xe9b9;" d="M186.539 439.603c-87.040 76.937-95.539 209.783-18.978 297.199l24.986-22.016c-64.512-73.557-57.378-185.446 16.009-250.163l-22.016-25.020z" />
<glyph unicode="&#xe9ba;" glyph-name="ico_quit" d="M640 751.189v-92.16c100.736-48.043 170.667-150.613 170.667-269.44 0-164.651-134.016-298.667-298.667-298.667-164.693 0-298.667 134.016-298.667 298.667 0 118.827 69.931 221.397 170.667 269.44v92.16c-148.907-52.907-256-194.773-256-361.6 0-211.755 172.288-384 384-384 211.755 0 384 172.245 384 384 0 166.827-107.093 308.736-256 361.6zM512 378.411c-23.552 0-42.667 19.072-42.667 42.667v426.667c0 23.552 19.115 42.667 42.667 42.667s42.667-19.115 42.667-42.667v-426.667c0-23.595-19.115-42.667-42.667-42.667z" />
<glyph unicode="&#xe9bb;" glyph-name="ico_favoris" d="M267.059 63.949l228.71 119.654c10.598 5.581 23.245 5.581 33.843 0l228.71-119.654-43.674 253.44c-2.048 11.725 1.792 23.706 10.24 32.051l185.242 179.558-255.693 36.966c-11.827 1.69-22.067 9.114-27.392 19.814l-114.381 230.81-114.33-230.4c-5.325-10.701-15.565-18.125-27.392-19.814l-255.693-36.966 185.037-179.507c8.448-8.346 12.288-20.326 10.24-32.051l-43.469-253.901zM235.674-34.253c-17.818-9.216-39.782-2.253-48.998 15.565-3.584 6.963-4.864 14.899-3.584 22.63l52.941 307.2-224.307 217.19c-14.336 13.875-14.694 36.762-0.768 51.098 5.581 5.786 12.954 9.523 20.89 10.65l309.965 44.8 138.24 279.296c8.96 18.022 30.822 25.344 48.794 16.384 7.066-3.533 12.851-9.267 16.384-16.384l138.496-279.296 309.709-44.8c19.763-2.765 33.536-21.043 30.771-40.858-1.126-7.936-4.864-15.309-10.65-20.89l-224.102-217.395 52.941-307.2c3.277-19.814-10.086-38.554-29.901-41.83-7.834-1.28-15.872 0-22.886 3.686l-276.992 144.896-276.941-144.742z" />
<glyph unicode="&#xe9bc;" d="M1024 448c0-282.77-229.23-512-512-512s-512 229.23-512 512c0 282.77 229.23 512 512 512s512-229.23 512-512z" />
<glyph unicode="&#xe9bd;" d="M549.525 612.309c8.341 8.32 21.845 8.32 30.165 0l15.083-15.083c8.32-8.341 8.32-21.845 0-30.165l-113.067-113.067 113.067-113.067c0 0 0.021-0.021 0.021-0.021 8.32-8.341 8.32-21.845-0.021-30.165l-15.083-15.083c0 0-0.021-0.021-0.021-0.021-8.341-8.32-21.845-8.32-30.165 0.021l-135.765 135.787c-10.645 10.645-11.755 33.472 0 45.227l135.787 135.637z" />
<glyph unicode="&#xe9be;" d="M1024 448c0-282.77-229.23-512-512-512s-512 229.23-512 512c0 282.77 229.23 512 512 512s512-229.23 512-512z" />
<glyph unicode="&#xe9bf;" d="M499.52 612.416l135.765-135.744c11.755-11.755 10.645-34.581 0-45.227l-135.765-135.787c-8.32-8.341-21.824-8.341-30.165-0.021 0 0-0.021 0.021-0.021 0.021l-15.083 15.083c-8.341 8.32-8.341 21.824-0.021 30.165 0 0 0.021 0.021 0.021 0.021l113.067 113.067-113.067 113.067c-8.32 8.341-8.32 21.845 0 30.165l15.083 15.083c8.341 8.32 21.845 8.32 30.165 0l0.021 0.107z" />
<glyph unicode="&#xe9c0;" glyph-name="geo_arrow-right" horiz-adv-x="539" d="M531.51 465.462c-1.024 0.997-2.129 2.291-3.261 3.072l-485.376 484.136c-9.809 9.782-25.708 9.782-35.517 0s-9.809-25.627 0-35.409l470.501-469.261-470.501-469.261c-9.809-9.782-9.809-25.627 0-35.409s25.708-9.782 35.517 0l485.403 484.109c1.132 0.808 2.344 2.075 3.368 3.099 5.039 5.039 7.437 10.86 7.303 17.462 0.135 6.602-2.371 12.423-7.437 17.462z" />
<glyph unicode="&#xe9c1;" horiz-adv-x="1338" d="M555.206 704v256h-555.206v-1024h1024v768z" />
<glyph unicode="&#xe9c2;" horiz-adv-x="1338" d="M79.313 881.233h79.313v-157.533h-79.313v157.533z" />
<glyph unicode="&#xe9c3;" horiz-adv-x="1338" d="M237.952 644.922h79.313v-157.533h-79.313v157.533z" />
<glyph unicode="&#xe9c4;" horiz-adv-x="1338" d="M79.313 408.611h79.313v-157.533h-79.313v157.533z" />
<glyph unicode="&#xe9c5;" horiz-adv-x="1338" d="M237.952 408.611h79.313v-157.533h-79.313v157.533z" />
<glyph unicode="&#xe9c6;" horiz-adv-x="1338" d="M555.206 644.922h79.313v-157.533h-79.313v157.533z" />
<glyph unicode="&#xe9c7;" horiz-adv-x="1338" d="M872.471 172.311h79.313v-157.533h-79.313v157.533z" />
<glyph unicode="&#xe9c8;" horiz-adv-x="1338" d="M79.313 172.311h79.313v-157.533h-79.313v157.533z" />
<glyph unicode="&#xe9c9;" horiz-adv-x="1338" d="M237.952 172.311h237.952v-236.311h-237.952v236.311z" />
<glyph unicode="&#xe9ca;" horiz-adv-x="1338" d="M237.952 881.233h79.313v-157.533h-79.313v157.533z" />
<glyph unicode="&#xe9cb;" horiz-adv-x="1338" d="M396.567 644.922h79.313v-157.533h-79.313v157.533z" />
<glyph unicode="&#xe9cc;" horiz-adv-x="1338" d="M396.567 408.611h79.313v-157.533h-79.313v157.533z" />
<glyph unicode="&#xe9cd;" horiz-adv-x="1338" d="M396.567 881.233h79.313v-157.533h-79.313v157.533z" />
<glyph unicode="&#xe9ce;" horiz-adv-x="1338" d="M79.313 644.922h79.313v-157.533h-79.313v157.533z" />
<glyph unicode="&#xe9cf;" horiz-adv-x="1338" d="M872.471 644.922h79.313v-157.533h-79.313v157.533z" />
<glyph unicode="&#xe9d0;" horiz-adv-x="1338" d="M555.206 408.611h79.313v-157.533h-79.313v157.533z" />
<glyph unicode="&#xe9d1;" horiz-adv-x="1338" d="M872.471 408.611h79.313v-157.533h-79.313v157.533z" />
<glyph unicode="&#xe9d2;" horiz-adv-x="1338" d="M555.206 172.311h79.313v-157.533h-79.313v157.533z" />
<glyph unicode="&#xe9d3;" horiz-adv-x="1338" d="M713.833 644.922h79.313v-157.533h-79.313v157.533z" />
<glyph unicode="&#xe9d4;" horiz-adv-x="1338" d="M713.833 408.611h79.313v-157.533h-79.313v157.533z" />
<glyph unicode="&#xe9d5;" horiz-adv-x="1338" d="M713.833 172.311h79.313v-157.533h-79.313v157.533z" />
<glyph unicode="&#xe9d6;" horiz-adv-x="1338" d="M1228.788 172.579c124.23 123.206 125.068 323.782 1.862 448.023-0.617 0.628-1.233 1.245-1.862 1.862-125.277 124.241-327.273 124.241-452.55 0-124.241-123.183-125.091-323.759-1.897-447.988 0.628-0.64 1.257-1.268 1.897-1.897l226.269-224.943 226.281 224.943z" />
<glyph unicode="&#xe9d7;" horiz-adv-x="1338" d="M1002.496-60.567l-232.308 230.97c-125.219 126.289-124.358 330.95 1.943 456.192 127.034 125.975 333.719 125.975 460.753 0l1.908-1.932c60.672-61.161 93.882-142.313 93.533-228.492-0.361-86.179-34.257-167.052-95.441-227.735v0.012l-230.388-229.015zM1002.508 709.457c-80.465 0-160.919-30.371-222.173-91.124-121.751-120.727-122.589-317.999-1.862-439.761l1.839-1.839 222.185-220.881 222.185 220.87c58.985 58.484 91.66 136.448 92.009 219.508 0.337 83.060-31.686 161.292-90.182 220.276l-1.815 1.839c-61.265 60.73-141.719 91.113-222.185 91.113z" />
<glyph unicode="&#xe9d8;" horiz-adv-x="1338" d="M1208.925 395.055c0-115.679-93.776-209.455-209.455-209.455s-209.455 93.776-209.455 209.455c0 115.679 93.776 209.455 209.455 209.455s209.455-93.776 209.455-209.455z" />
<glyph unicode="&#xe9d9;" d="M697.502 135.759c-32.256 31.842-66.146 61.952-101.553 90.23l-76.465-76.465-305.959 305.979 76.465 76.465c-56.182 71.188-120.537 135.522-191.705 191.724 0 0-91.628-84.303-97.772-151.138-8.251-89.482 86.469-252.18 235.185-400.876s311.394-243.417 400.876-235.185c66.816 6.164 151.119 97.772 151.119 97.772-28.278 35.387-58.388 69.258-90.191 101.494z" />
<glyph unicode="&#xe9da;" d="M748.308 408.615c152.261 0 275.692 123.431 275.692 275.692s-123.431 275.692-275.692 275.692c-152.261 0-275.692-123.431-275.692-275.692v-275.692h275.692z" />
<glyph unicode="&#xe9db;" d="M597.209 761.836h238.375v-40.527h-238.375v40.527z" />
<glyph unicode="&#xe9dc;" d="M597.209 585.196h238.375v-40.527h-238.375v40.527z" />
<glyph unicode="&#xe9dd;" d="M597.209 673.516h238.375v-40.527h-238.375v40.527z" />
<glyph unicode="&#xe9de;" d="M938.378 789.13l39.798-21.012-104.901-198.695-40.901-29.302 0.945 49.999 105.058 199.010z" />
<glyph unicode="&#xe9df;" d="M272.64 673.536h749.653v-451.072h-749.653v451.072z" />
<glyph unicode="&#xe9e0;" d="M272.64 673.536h751.36l-377.6-332.331-373.76 332.331z" />
<glyph unicode="&#xe9e1;" d="M95.573 521.557h213.333v-40.107h-213.333v40.107z" />
<glyph unicode="&#xe9e2;" d="M95.573 305.237h213.333v-40.107h-213.333v40.107z" />
<glyph unicode="&#xe9e3;" d="M0 417.664h308.907v-40.107h-308.907v40.107z" />
<glyph unicode="&#xe9e4;" d="M822.059 334.976c-16.128 0-32.171-1.963-47.829-5.803l-380.416 380.416c25.856 106.88-39.851 214.443-146.688 240.299-33.451 8.107-68.437 7.381-101.547-2.091l66.944-66.944c33.92-34.133 33.92-89.259 0-123.392l-12.075-12.075c-34.133-33.92-89.259-33.92-123.392 0l-67.712 67.712c-31.317-105.472 28.757-216.363 134.229-247.68 34.347-10.197 70.827-10.965 105.6-2.176l379.733-379.733c-26.368-106.752 38.784-214.699 145.536-241.067 34.091-8.405 69.803-7.68 103.509 2.133l-66.987 66.987c-33.92 34.133-33.92 89.259 0 123.392l12.075 12.075c34.133 33.92 89.259 33.92 123.392 0l66.987-66.987c30.805 105.557-29.824 216.107-135.381 246.912-18.133 5.291-36.907 7.979-55.808 7.979l-0.171 0.043z" />
<glyph unicode="&#xe9e5;" d="M909.141 617.429l58.752 58.752-285.312 285.312-174.933-174.933 401.067-401.067 116.267 116.267-115.84 115.669z" />
<glyph unicode="&#xe9e6;" d="M619.093 674.816l-540.8-540.8c-48-34.133-59.264-100.736-25.131-148.736s100.736-59.264 148.736-25.131c9.728 6.912 18.219 15.403 25.173 25.173l540.843 540.843-148.821 148.651z" />
<glyph unicode="&#xe9e7;" d="M61.525 960h703.147v-1024h-703.147v1024z" />
<glyph unicode="&#xe9e8;" d="M871.509 632.576l90.965-48.043-239.787-454.144-93.483-66.987 2.219 114.304 240.085 454.869z" />
<glyph unicode="&#xe9e9;" d="M562.731 31.403c20.395 44.16-20.48 23.125-20.48 23.125-16.939-2.645-34.048-4.096-51.2-4.267-11.435-0.213-22.869 0.683-34.133 2.645-6.741 0.939-13.141 3.541-18.645 7.552l-5.504 3.371-2.56 0.597h-2.133c-0.469 0.043-0.981 0.043-1.451 0h-0.981l-1.237-0.256-3.285-0.64-9.557-1.877c-2.816-0.512-5.419-0.896-7.851-1.237v0c-2.56 4.309-6.699 7.381-11.563 8.533-0.683 0-1.109-0.64-1.835-0.597-0.128 5.717-1.707 11.307-4.608 16.256-2.475 4.096-6.315 7.211-10.837 8.789-4.821 1.493-10.027 1.237-14.72-0.725-11.221-5.248-21.12-12.971-28.928-22.571-0.555 14.592-1.963 29.099-4.267 43.52-1.707 11.264-4.352 22.315-7.893 33.152-2.005 10.624-8.576 19.883-17.963 25.301-9.173 4.565-19.371 6.613-29.611 5.931-10.069-0.725-19.883-3.371-28.971-7.765-18.901-9.728-35.925-22.741-50.261-38.4-25.259-27.221-47.573-57.088-66.475-89.045-4.181-6.571-2.304-15.275 4.267-19.456s15.275-2.304 19.456 4.267v0l0.427 0.725c17.877 30.080 38.869 58.197 62.592 83.925 12.032 13.184 26.24 24.235 42.027 32.64 10.325 6.357 23.125 7.125 34.133 2.091-2.859 1.451 1.365-1.835 3.925-9.259 2.987-9.344 5.248-18.901 6.699-28.587 2.816-17.195 4.48-34.56 5.077-51.968-2.261-4.48-4.139-9.173-5.632-13.952-2.219-4.139-3.413-8.747-3.541-13.44-0.128-4.651 1.536-9.131 4.736-12.501 3.413-3.371 8.021-5.248 12.8-5.205l4.864 0.896c0 0 1.749 0.768 2.261 1.067 0.725 0.384 1.365 0.853 1.963 1.365 0.469 0.384 0.896 0.768 1.28 1.237 0.341 0.341 0.683 0.725 0.981 1.109l1.408 1.792 4.267 5.248c3.328 4.267 7.851 10.069 12.8 16 6.101 6.955 12.928 13.227 20.395 18.731 0-2.261 0-4.523 0-6.571s0-3.413 0-5.291c0.043-1.28 0.213-2.517 0.555-3.755 0.341-1.664 0.981-3.243 1.963-4.608 2.773-3.883 7.211-6.315 11.989-6.528 3.499-0.128 6.869 1.152 9.429 3.541 1.237-2.219 3.413-3.797 5.931-4.267 3.968-1.109 8.192-1.109 12.16 0 3.712 0.469 7.723 1.152 11.563 1.835l9.088 1.749c7.765-5.077 16.469-8.576 25.6-10.325 13.013-2.347 26.283-3.413 39.509-3.2 21.632 0 43.179 2.048 64.427 6.187 3.84 0.768 7.211 3.072 9.301 6.4z" />
<glyph unicode="&#xe9ea;" d="M199.765 825.472h426.667v-42.667h-426.667v42.667z" />
<glyph unicode="&#xe9eb;" d="M199.765 654.805h426.667v-42.667h-426.667v42.667z" />
<glyph unicode="&#xe9ec;" d="M199.765 484.139h426.667v-42.667h-426.667v42.667z" />
<glyph unicode="&#xe9ed;" d="M0 776.107h860.16v-749.781h-860.16v749.781z" />
<glyph unicode="&#xe9ee;" d="M693.547 527.104h330.453v-254.464h-330.453v254.464z" />
<glyph unicode="&#xe9ef;" d="M747.819 448.512h97.237v-97.237h-97.237v97.237z" />
<glyph unicode="&#xe9f0;" d="M276.096 686.208l382.763 183.467 88.96-183.467h-471.723z" />
<glyph unicode="&#xe9f1;" d="M86.528 686.208h772.267v-46.763h-772.267v46.763z" />
<glyph unicode="&#xe9f2;" d="M0.043 709.717c143.488 1.835 261.291-112.981 263.125-256.427 1.792-143.488-112.981-261.291-256.469-263.125-2.219-0.043-4.437-0.043-6.656 0v519.552z" />
<glyph unicode="&#xe9f3;" d="M106.283 324.736h137.984l320.853-140.288 458.837 193.195c-9.344 50.091-57.557 83.072-107.605 73.728-5.675-1.067-11.221-2.645-16.597-4.736l-276.011-98.901-186.283 110.379h174.933c80.512 0 91.989 108.117 91.989 108.117h-598.016l-0.085-241.493z" />
<glyph unicode="&#xe9f4;" d="M159.701 647.979h712.405v-711.979h-712.405v711.979z" />
<glyph unicode="&#xe9f5;" d="M0 533.333h1024l-512 426.667-512-426.667z" />
<glyph unicode="&#xe9f6;" glyph-name="logo-reduit" d="M1024-64c-284.885 0-512.555 228.821-512.555 511.445h291.627c121.131 0 220.971-98.688 220.971-220.971v-290.475zM768.299 191.701c0 425.088-344.363 768.299-768.299 768.299v-551.808c0-118.869 97.579-217.6 217.6-217.6h550.699v1.109zM724.523 447.445h-213.12c0-93.099 24.661-180.565 68.437-255.701h188.416c0.043 89.685-15.659 174.933-43.733 255.701z" />
<glyph unicode="&#xe9f7;" horiz-adv-x="1253" d="M1250.942 277.582c-189.85 0-341.582 152.48-341.582 340.835h194.331c80.727 0 147.251-65.777 147.251-147.251v-193.584z" />
<glyph unicode="&#xe9f8;" horiz-adv-x="1253" d="M1080.525 448c0 283.287-229.46 512-512 512v-367.749c0-79.234 65.030-144.998 144.998-144.998h367.002v0.747z" />
<glyph unicode="&#xe9f9;" horiz-adv-x="1253" d="M851.052 225.262v0c0 14.203-5.228 26.166-14.95 36.623-8.216 8.216-18.685 13.457-29.901 14.95l-4.482 0.747v-227.966c0-13.457 11.216-24.66 24.66-24.66s24.66 11.216 24.66 24.66v85.209c0.012 0 0.012 90.437 0.012 90.437zM750.893 276.088v0h-39.611c0 0 0 0-0.747 0h-14.203c-35.129 0-65.030-11.963-89.69-36.623-25.407-24.66-37.37-53.814-37.37-88.943v-126.313l4.482 0.747c11.216 1.494 20.926 5.975 29.901 14.95 10.469 10.469 14.95 22.42 14.95 36.623v74.74c0 21.673 7.469 40.358 22.42 55.308 14.95 15.697 33.635 23.166 55.308 23.166h54.561c12.71 0 23.166 10.469 23.166 23.166 0.012 13.457-10.457 23.179-23.166 23.179zM1082.019 29.425c-1.494 10.469-5.975 19.432-13.457 27.66v0c-9.722 9.722-20.926 14.203-34.382 14.203h-24.66c-21.673 0-40.358 8.216-55.308 23.166-14.95 15.697-22.42 34.382-22.42 55.308v0 0 50.827c0 0.747 0 2.241 0 3.735v48.586c0 13.457-11.216 24.66-24.66 24.66v0 0c-12.71 0-23.166-10.469-24.66-23.166v-62.789c0 0 0 0 0-0.747v-40.358c0-35.129 12.71-64.283 37.37-88.943 25.407-24.66 54.561-36.623 89.69-36.623h73.246l-0.759 4.482zM218.714 239.465c-25.407 24.66-55.308 36.623-89.69 36.623-35.129 0-64.283-11.963-89.69-36.623s-37.37-54.561-37.37-88.943c0-35.129 12.71-64.283 37.37-88.943 25.407-24.66 54.561-36.623 89.69-36.623h127.807v125.566c0 34.382-12.698 64.271-38.117 88.943v0zM206.752 71.288h-77.728c-21.673 0-40.358 8.216-55.308 23.166s-22.42 33.635-22.42 55.308v0.747c0 21.673 7.469 40.358 22.42 56.055s33.635 23.913 55.308 23.913v0c0 0 0 0 0.747 0 21.673 0 40.358-8.216 55.308-23.913s22.42-34.382 22.42-56.055v-79.234h-0.747z" />
<glyph unicode="&#xe9fa;" horiz-adv-x="1253" d="M1051.371 618.418h-142.011c0-62.042 16.444-120.338 45.598-170.418h125.566c0 59.802-10.469 116.603-29.154 170.418z" />
<glyph unicode="&#xe9fb;" horiz-adv-x="1253" d="M504.989 239.465v0c-25.407 24.66-55.308 36.623-89.69 36.623-35.129 0-64.283-11.963-89.69-36.623s-37.37-54.561-37.37-88.943v-214.522l4.482 0.747c11.216 1.494 20.926 5.975 29.901 14.95 10.469 10.469 14.95 22.42 14.95 36.623v38.117h77.74c35.129 0 65.030 11.963 89.69 36.623 25.407 24.66 37.37 53.814 37.37 88.943-0.012 32.901-12.722 62.789-37.382 87.462zM493.026 150.522v0 0c0-21.673-7.469-40.358-22.42-56.055s-33.635-23.166-55.308-23.166h-78.487v78.487c0 0 0 0 0 0.747v0 0c0 21.673 7.469 40.358 22.42 55.308 14.203 14.95 31.395 22.42 50.827 23.166v-0.747l4.482 0.747c21.673 0 40.358-8.216 55.308-23.913 14.962-14.216 22.432-32.901 23.179-54.573v0z" />
<glyph unicode="&#xe9fc;" horiz-adv-x="1536" d="M1294.561 391.762c-158.454 0-285.095 127.263-285.095 284.467h162.195c67.372 0 122.894-54.9 122.894-122.894v-161.574z" />
<glyph unicode="&#xe9fd;" horiz-adv-x="1536" d="M1152.328 533.996c0 236.435-191.515 427.329-427.329 427.329v-306.927c0-66.13 54.272-121.023 121.023-121.023h306.306v0.621z" />
<glyph unicode="&#xe9fe;" horiz-adv-x="1536" d="M960.806 348.092v0c0 11.851-4.369 21.832-12.479 30.57-6.861 6.861-15.599 11.23-24.951 12.479l-3.741 0.621v-190.273c0-11.23 9.359-20.589 20.589-20.589s20.589 9.359 20.589 20.589v71.12c-0.007 0-0.007 75.482-0.007 75.482zM877.213 390.513v0h-33.062c0 0 0 0-0.621 0h-11.851c-29.321 0-54.272-9.981-74.861-30.57-21.21-20.589-31.191-44.919-31.191-74.24v-105.431l3.741 0.621c9.359 1.249 17.469 4.99 24.951 12.479 8.731 8.731 12.479 18.712 12.479 30.57v62.382c0 18.091 6.24 33.69 18.712 46.162 12.479 13.1 28.071 19.34 46.162 19.34h45.541c10.602 0 19.34 8.731 19.34 19.34 0 11.237-8.731 19.347-19.34 19.347zM1153.577 184.648c-1.249 8.731-4.99 16.22-11.23 23.081v0c-8.11 8.11-17.469 11.851-28.699 11.851h-20.589c-18.091 0-33.69 6.861-46.162 19.34-12.479 13.1-18.712 28.699-18.712 46.162v0 0 42.421c0 0.621 0 1.871 0 3.12v40.55c0 11.23-9.359 20.589-20.589 20.589v0 0c-10.609 0-19.34-8.731-20.589-19.34v-52.401c0 0 0 0 0-0.621v-33.69c0-29.321 10.602-53.651 31.191-74.24 21.21-20.589 45.541-30.57 74.861-30.57h61.133l-0.614 3.748zM433.043 359.943c-21.21 20.589-46.162 30.57-74.861 30.57-29.321 0-53.651-9.981-74.861-30.57s-31.191-45.541-31.191-74.24c0-29.321 10.609-53.651 31.191-74.24 21.21-20.589 45.541-30.57 74.861-30.57h106.673v104.817c0 28.692-10.602 53.651-31.812 74.233v0zM423.062 219.58h-64.881c-18.091 0-33.69 6.861-46.162 19.34s-18.712 28.071-18.712 46.162v0.621c0 18.091 6.24 33.69 18.712 46.79 12.479 13.1 28.071 19.961 46.162 19.961v0c0 0 0 0 0.621 0 18.091 0 33.69-6.861 46.162-19.961 12.479-13.1 18.712-28.699 18.712-46.79v-66.13h-0.614z" />
<glyph unicode="&#xe9ff;" horiz-adv-x="1536" d="M1127.997 676.229h-118.531c0-51.78 13.722-100.441 38.052-142.234h104.803c0.007 49.91-8.731 97.321-24.323 142.234z" />
<glyph unicode="&#xea00;" horiz-adv-x="1536" d="M671.969 359.943v0c-21.21 20.589-46.162 30.57-74.861 30.57-29.321 0-53.651-9.981-74.861-30.57s-31.191-45.541-31.191-74.24v-179.036l3.741 0.621c9.359 1.249 17.469 4.99 24.951 12.479 8.731 8.731 12.479 18.712 12.479 30.57v31.819h64.881c29.321 0 54.272 9.981 74.861 30.57 21.21 20.589 31.191 44.919 31.191 74.24 0 27.436-10.602 52.395-31.191 72.977zM661.989 285.71v0 0c0-18.091-6.24-33.69-18.712-46.79-12.479-13.1-28.071-19.34-46.162-19.34h-65.502v65.502c0 0 0 0 0 0.621v0 0c0 18.091 6.24 33.69 18.712 46.162 11.851 12.479 26.201 18.712 42.421 19.34v-0.621l3.741 0.621c18.091 0 33.69-6.861 46.162-19.961 12.479-11.851 18.719-27.443 19.34-45.534v0z" />
<glyph unicode="&#xea01;" horiz-adv-x="1536" d="M1.707-37.506v92.515h14.090v-79.647h44.728v-12.868h-58.819z" />
<glyph unicode="&#xea02;" horiz-adv-x="1536" d="M74.001 29.887v25.73h14.705v-13.476l-14.705-12.254z" />
<glyph unicode="&#xea03;" horiz-adv-x="1536" d="M145.073-37.506v6.124c-4.902-4.902-9.189-6.738-17.77-6.738-7.967 0-13.476 1.836-17.77 6.124-3.673 3.673-4.902 8.574-4.902 14.090 0 11.025 7.967 18.992 22.671 18.992h17.155v4.902c0 8.574-4.287 12.254-14.705 12.254-7.352 0-11.025-1.836-14.705-6.124l-8.574 7.967c6.124 7.352 12.868 9.189 23.893 9.189 17.77 0 26.959-7.967 26.959-22.671v-44.114l-12.254 0.007zM144.459-8.096h-15.319c-7.967 0-11.639-3.673-11.639-9.189 0-6.124 3.673-9.189 12.254-9.189 4.902 0 8.574 0.614 12.254 3.673 1.836 1.836 3.065 4.902 3.065 9.803v4.902h-0.614z" />
<glyph unicode="&#xea04;" horiz-adv-x="1536" d="M199.605-38.12c-11.025 0-19.606 1.836-27.573 9.189l8.574 8.574c5.516-5.516 12.254-6.738 18.992-6.738 7.967 0 14.705 3.065 14.705 9.189 0 4.287-2.451 7.352-8.574 7.967l-10.417 0.614c-12.254 1.222-19.606 6.738-19.606 18.377 0 12.868 11.025 20.221 25.122 20.221 9.803 0 18.377-1.836 24.508-7.352l-8.574-8.574c-4.287 3.673-9.803 4.902-16.541 4.902-7.967 0-12.254-3.673-12.254-8.574 0-3.673 1.836-6.738 9.189-7.352l10.417-0.614c12.254-1.222 19.606-6.738 19.606-18.377-0.007-14.097-12.261-21.449-27.573-21.449z" />
<glyph unicode="&#xea05;" horiz-adv-x="1536" d="M264.547-38.12c-11.025 0-19.606 1.836-27.573 9.189l8.574 8.574c5.516-5.516 12.254-6.738 18.992-6.738 7.967 0 14.705 3.065 14.705 9.189 0 4.287-2.451 7.352-8.574 7.967l-10.417 0.614c-12.254 1.222-19.606 6.738-19.606 18.377 0 12.868 11.025 20.221 25.122 20.221 9.803 0 18.377-1.836 24.508-7.352l-8.574-8.574c-4.287 3.673-9.803 4.902-16.541 4.902-7.967 0-12.254-3.673-12.254-8.574 0-3.673 1.836-6.738 9.189-7.352l10.417-0.614c12.254-1.222 19.606-6.738 19.606-18.377-0.614-14.097-12.254-21.449-27.573-21.449z" />
<glyph unicode="&#xea06;" horiz-adv-x="1536" d="M347.873-37.506v6.738c-4.287-4.902-11.025-7.352-17.77-7.352-6.738 0-12.254 2.451-16.541 6.124-4.902 4.902-6.738 11.025-6.738 18.377v42.278h13.476v-40.434c0-10.417 6.124-14.705 13.476-14.705s13.476 4.287 13.476 14.705v40.434h13.476v-66.171h-12.855z" />
<glyph unicode="&#xea07;" horiz-adv-x="1536" d="M417.717 13.346c-3.065 3.065-5.516 4.287-9.803 4.287-7.352 0-12.868-5.516-12.868-14.705v-39.827h-13.476v66.171h12.868v-7.352c3.673 4.902 10.417 7.967 17.77 7.967 6.124 0 11.025-1.836 15.927-6.124l-10.417-10.417z" />
<glyph unicode="&#xea08;" horiz-adv-x="1536" d="M474.085-37.506v6.124c-4.902-4.902-9.189-6.738-17.77-6.738-7.967 0-13.476 1.836-17.77 6.124-3.673 3.673-4.902 8.574-4.902 14.090 0 11.025 7.967 18.992 22.671 18.992h17.155v4.902c0 8.574-4.287 12.254-14.705 12.254-7.352 0-11.025-1.836-14.705-6.124l-8.574 7.967c6.124 7.352 12.868 9.189 23.893 9.189 17.77 0 26.959-7.967 26.959-22.671v-44.114l-12.254 0.007zM474.085-8.096h-15.319c-7.967 0-11.639-3.673-11.639-9.189 0-6.124 3.673-9.189 12.254-9.189 4.902 0 8.574 0.614 12.254 3.673 1.836 1.836 3.065 4.902 3.065 9.803v4.902h-0.614z" />
<glyph unicode="&#xea09;" horiz-adv-x="1536" d="M547.608-37.506v40.434c0 10.417-6.124 14.705-13.476 14.705s-13.476-4.287-13.476-14.705v-40.434h-13.476v66.171h12.868v-6.738c4.287 4.902 11.025 7.352 17.77 7.352s12.254-2.451 16.541-6.124c4.902-4.902 6.738-11.025 6.738-18.377v-42.278h-13.489z" />
<glyph unicode="&#xea0a;" horiz-adv-x="1536" d="M607.648-38.12c-14.705 0-29.409 9.189-29.409 33.696s14.705 33.696 29.409 33.696c9.189 0 15.319-2.451 21.443-9.189l-9.189-8.574c-4.287 4.287-7.352 6.124-12.868 6.124-4.902 0-9.189-1.836-12.254-6.124-3.065-3.673-3.673-8.574-3.673-15.927 0-7.967 1.229-12.254 3.673-15.927 3.065-3.673 7.352-6.124 12.254-6.124s8.574 1.836 12.868 6.124l9.189-8.574c-6.124-6.137-12.861-9.202-21.443-9.202z" />
<glyph unicode="&#xea0b;" horiz-adv-x="1536" d="M654.213-8.096c0-11.025 6.124-18.377 16.541-18.377 7.352 0 11.025 1.836 15.927 6.738l8.574-7.967c-6.738-6.738-12.868-10.417-24.508-10.417-16.541 0-29.409 8.574-29.409 33.696 0 21.443 11.025 33.696 28.18 33.696 17.77 0 28.18-12.868 28.18-31.86v-6.124h-43.5v0.614zM681.786 10.281c-1.836 4.902-6.738 8.574-12.868 8.574-6.124 0-11.025-3.673-12.868-8.574-1.229-3.065-1.836-4.902-1.836-9.189h29.409c0 4.287-0.614 6.124-1.836 9.189z" />
<glyph unicode="&#xea0c;" horiz-adv-x="1536" d="M755.309-8.096c0-11.025 6.124-18.377 16.541-18.377 7.352 0 11.025 1.836 15.927 6.738l8.574-7.967c-6.738-6.738-12.868-10.417-24.508-10.417-16.541 0-29.409 8.574-29.409 33.696 0 21.443 11.025 33.696 28.18 33.696 17.77 0 28.18-12.868 28.18-31.86v-6.124h-43.5v0.614zM783.49 10.281c-1.836 4.902-6.738 8.574-12.868 8.574-6.124 0-11.025-3.673-12.868-8.574-1.229-3.065-1.836-4.902-1.836-9.189h29.409c-0.608 4.287-0.608 6.124-1.836 9.189z" />
<glyph unicode="&#xea0d;" horiz-adv-x="1536" d="M855.791-37.506v40.434c0 10.417-6.124 14.705-13.476 14.705s-13.476-4.287-13.476-14.705v-40.434h-13.476v66.171h12.868v-6.738c4.287 4.902 11.025 7.352 17.77 7.352s12.254-2.451 16.541-6.124c4.902-4.902 6.738-11.025 6.738-18.377v-42.278h-13.489z" />
<glyph unicode="&#xea0e;" horiz-adv-x="1536" d="M967.298-31.997c-3.673-3.673-9.189-6.124-15.927-6.124s-12.254 1.836-17.155 7.352v-33.696h-13.476v92.515h12.868v-6.738c4.902 6.124 10.417 7.967 17.155 7.967s12.254-2.451 15.927-6.124c6.738-6.738 7.352-17.77 7.352-27.573 0.608-9.81-0.007-21.449-6.745-27.58zM947.692 17.633c-12.254 0-13.476-10.417-13.476-22.057s1.836-22.057 13.476-22.057 13.476 10.417 13.476 22.057c0 11.639-1.222 22.057-13.476 22.057z" />
<glyph unicode="&#xea0f;" horiz-adv-x="1536" d="M1010.183-37.506c-12.868 0-17.77 8.574-17.77 18.377v74.138h13.476v-73.523c0-4.902 1.836-7.967 7.352-7.967h6.124v-11.025c0.007 0-9.182 0-9.182 0z" />
<glyph unicode="&#xea10;" horiz-adv-x="1536" d="M1072.681-37.506v6.738c-4.287-4.902-11.025-7.352-17.77-7.352s-12.254 2.451-16.541 6.124c-4.902 4.902-6.738 11.025-6.738 18.377v42.278h13.476v-40.434c0-10.417 6.124-14.705 13.476-14.705s13.476 4.287 13.476 14.705v40.434h13.476v-66.171h-12.855z" />
<glyph unicode="&#xea11;" horiz-adv-x="1536" d="M1127.82-38.12c-11.025 0-19.606 1.836-27.573 9.189l8.574 8.574c5.516-5.516 12.254-6.738 18.992-6.738 7.967 0 14.705 3.065 14.705 9.189 0 4.287-2.451 7.352-8.574 7.967l-10.417 0.614c-12.254 1.222-19.606 6.738-19.606 18.377 0 12.868 11.025 20.221 25.122 20.221 9.803 0 18.377-1.836 24.508-7.352l-8.574-8.574c-4.287 3.673-9.803 4.902-16.541 4.902-7.967 0-12.254-3.673-12.254-8.574 0-3.673 1.836-6.738 9.189-7.352l10.417-0.614c12.254-1.222 19.606-6.738 19.606-18.377 0-14.097-11.646-21.449-27.573-21.449z" />
<glyph unicode="&#xea12;" horiz-adv-x="1536" d="M1217.884 17.019v-54.531h-12.868v54.531h-7.352v10.417h7.352v10.417c0 9.189 5.516 18.377 17.77 18.377h8.574v-11.025h-6.124c-4.902 0-7.352-3.065-7.352-7.967v-9.189h12.868v-10.417h-12.868v-0.614z" />
<glyph unicode="&#xea13;" horiz-adv-x="1536" d="M1280.99-37.506v6.124c-4.902-4.902-9.189-6.738-17.77-6.738-7.967 0-13.476 1.836-17.77 6.124-3.673 3.673-4.902 8.574-4.902 14.090 0 11.025 7.967 18.992 22.671 18.992h17.155v4.902c0 8.574-4.287 12.254-14.705 12.254-7.352 0-11.025-1.836-14.705-6.124l-8.574 7.967c6.124 7.352 12.868 9.189 23.893 9.189 17.77 0 26.959-7.967 26.959-22.671v-44.114l-12.254 0.007zM1280.375-8.096h-15.319c-7.967 0-11.639-3.673-11.639-9.189 0-6.124 3.673-9.189 12.254-9.189 4.902 0 8.574 0.614 12.254 3.673 1.836 1.836 3.065 4.902 3.065 9.803v4.902h-0.614z" />
<glyph unicode="&#xea14;" horiz-adv-x="1536" d="M1340.423-38.12c-14.705 0-29.409 9.189-29.409 33.696s14.705 33.696 29.409 33.696c9.189 0 15.319-2.451 21.443-9.189l-9.189-8.574c-4.287 4.287-7.352 6.124-12.868 6.124-4.902 0-9.189-1.836-12.254-6.124-3.065-3.673-3.673-8.574-3.673-15.927 0-7.967 1.229-12.254 3.673-15.927 3.065-3.673 7.352-6.124 12.254-6.124s8.574 1.836 12.868 6.124l9.189-8.574c-6.13-6.137-12.254-9.202-21.443-9.202z" />
<glyph unicode="&#xea15;" horiz-adv-x="1536" d="M1377.184 41.527v14.090h14.090v-14.090h-14.090zM1377.184-37.506v66.171h13.476v-66.171h-13.476z" />
<glyph unicode="&#xea16;" horiz-adv-x="1536" d="M1429.258-37.506c-12.868 0-17.77 8.574-17.77 18.377v74.138h13.476v-73.523c0-4.902 1.836-7.967 7.352-7.967h6.124v-11.025c0.014 0-9.182 0-9.182 0z" />
<glyph unicode="&#xea17;" horiz-adv-x="1536" d="M1461.733-8.096c0-11.025 6.124-18.377 16.541-18.377 7.352 0 11.025 1.836 15.927 6.738l8.574-7.967c-6.738-6.738-12.868-10.417-24.508-10.417-16.541 0-29.409 8.574-29.409 33.696 0 21.443 11.025 33.696 28.18 33.696 17.77 0 28.18-12.868 28.18-31.86v-6.124h-43.5v0.614zM1489.913 10.281c-1.836 4.902-6.738 8.574-12.868 8.574-6.124 0-11.025-3.673-12.868-8.574-1.229-3.065-1.836-4.902-1.836-9.189h29.409c-0.608 4.287-0.608 6.124-1.836 9.189z" />
<glyph unicode="&#xea18;" horiz-adv-x="1536" d="M1521.773-37.506v15.927h15.927v-15.927h-15.927z" />
<glyph unicode="&#xea19;" horiz-adv-x="1548" d="M1036.488-64c-283.267 0.493-512.5 228.951-512 510.277 0 0.337 0 0.668 0 1.005 0 283.167 229.226 512.718 512 512.718 277.26 0 503.040-220.722 511.707-496.272h0.287v-527.728h-511.994z" />
<glyph unicode="&#xea1a;" horiz-adv-x="1548" d="M512 960c283.273-0.5 512.506-228.964 512-510.289 0-0.331 0-0.662 0-0.993 0-283.167-229.226-512.718-512-512.718-277.26 0-503.040 220.716-511.707 496.265h-0.287v527.735h511.994z" />
<glyph unicode="&#xea1b;" horiz-adv-x="1539" d="M1027.346-64c-282.768 0-512 228.121-512 511.284s229.232 512.716 512 512.716c276.262 0.094 502.744-219.554 511.709-496.272h0.291v-527.728h-512z" />
<glyph unicode="&#xea1c;" horiz-adv-x="1539" d="M512 960c282.771 0 512-228.121 512-511.287s-229.232-512.713-512-512.713c-276.262-0.094-502.744 219.554-511.709 496.272h-0.291v527.728h512z" />
</font>
</defs>
</svg>
