<?xml version="1.0" encoding="utf-8"?>
<!-- Generator: Adobe Illustrator 24.0.3, SVG Export Plug-In . SVG Version: 6.00 Build 0)  -->
<svg version="1.1" id="Calque_1" xmlns="http://www.w3.org/2000/svg" xmlns:xlink="http://www.w3.org/1999/xlink" x="0px" y="0px"
	 viewBox="0 0 40 40" style="enable-background:new 0 0 40 40;" xml:space="preserve">
<style type="text/css">
	.st0{opacity:0;fill:#FFFFFF;}
	.st1{fill:#A8A8A8;}
</style>
<circle class="st0" cx="20" cy="20" r="20"/>
<g id="b0QXpO.tif" transform="translate(-2538.19 -758.977)">
	<g id="Groupe_610" transform="translate(2538.19 758.977)">
		<path id="Tracé_671" class="st1" d="M10.472,10.247h17.977V9.192H10.472V10.247z"/>
		<path id="Tracé_672" class="st1" d="M7.723,9.402c0.035-0.127,0.072-0.254,0.105-0.381c0.318-1.168,1.372-1.984,2.583-2
			c6.174,0,12.348,0,18.522,0c0.3-0.037,0.573,0.177,0.609,0.477c0.037,0.3-0.177,0.573-0.477,0.609
			c-0.037,0.005-0.075,0.005-0.113,0.002c-0.094,0-0.187,0-0.281,0c-6.003,0-12.007,0-18.011,0
			c-0.534-0.044-1.058,0.162-1.418,0.558c-0.585,0.671-0.516,1.69,0.156,2.276c0.295,0.257,0.673,0.398,1.064,0.397
			c3.475,0.005,6.949,0.005,10.423,0h8.648c0.005,0.088,0.013,0.153,0.013,0.218c0,2.437,0,4.874,0,7.311
			c0.039,0.293-0.168,0.563-0.461,0.602c-0.05,0.007-0.101,0.006-0.151-0.002c-0.229-0.015-0.418-0.183-0.46-0.408
			c-0.021-0.116-0.03-0.235-0.026-0.353c0-1.98,0-3.96,0-5.94v-0.329h-0.356c-5.646,0-11.292,0-16.939,0
			c-0.803,0.085-1.612-0.103-2.294-0.535c-0.006,0.132-0.013,0.22-0.013,0.308c0,5.991,0.009,11.982-0.011,17.974
			c-0.02,0.939,0.725,1.716,1.664,1.735c0.027,0.001,0.055,0,0.082,0c2.742-0.019,5.484-0.006,8.226-0.006h0.2
			c0.408,0,0.615,0.113,0.7,0.378s-0.007,0.473-0.336,0.714H10.02c-0.043-0.021-0.088-0.038-0.134-0.053
			c-0.964-0.203-1.742-0.914-2.032-1.856c-0.053-0.156-0.09-0.318-0.134-0.478L7.723,9.402z"/>
		<path id="Tracé_673" class="st1" d="M24.537,33.016c-0.507-0.091-1.008-0.213-1.5-0.366c-2.333-0.75-4.018-2.787-4.316-5.22
			c-0.508-3.419,1.764-6.633,5.157-7.293c3.523-0.72,6.963,1.553,7.682,5.077c0.72,3.523-1.553,6.963-5.076,7.682l0,0
			c-0.2,0.043-0.41,0.08-0.616,0.12H24.537z M25.188,21.109c-2.986,0.016-5.393,2.448-5.378,5.434
			c0.015,2.986,2.448,5.393,5.434,5.378c2.965-0.016,5.365-2.417,5.378-5.382C30.615,23.541,28.185,21.114,25.188,21.109
			L25.188,21.109z"/>
		<path id="Tracé_675" class="st1" d="M10.472,10.247V9.192h17.977v1.052L10.472,10.247z"/>
		<path id="Tracé_677" class="st1" d="M28.538,26.616c-0.867,0.877-1.709,1.738-2.562,2.587c-0.193,0.204-0.514,0.213-0.718,0.02
			c-0.011-0.011-0.022-0.022-0.033-0.034c-0.215-0.209-0.219-0.553-0.009-0.768c0.003-0.003,0.006-0.006,0.009-0.009
			c0.191-0.2,0.392-0.4,0.591-0.6c0.214-0.198,0.411-0.416,0.587-0.649h-0.255c-1.235,0-2.47,0-3.705,0
			c-0.392,0-0.624-0.2-0.626-0.539s0.224-0.554,0.616-0.556c1.227,0,2.453,0,3.68,0h0.34c-0.422-0.423-0.8-0.789-1.157-1.167
			c-0.101-0.1-0.176-0.225-0.217-0.361c-0.058-0.223,0.044-0.458,0.247-0.567c0.191-0.125,0.441-0.111,0.617,0.034
			c0.047,0.037,0.091,0.077,0.131,0.12l2.315,2.33C28.438,26.505,28.482,26.555,28.538,26.616z"/>
	</g>
</g>
</svg>
